<?xml version="1.0" encoding="UTF-8" standalone="no"?>
<!DOCTYPE svg PUBLIC "-//W3C//DTD SVG 20010904//EN"
              "http://www.w3.org/TR/2001/REC-SVG-20010904/DTD/svg10.dtd">

<svg xmlns="http://www.w3.org/2000/svg"
     width="5.32497in" height="5.12478in"
     viewBox="0 0 798 768">
  <path id="Unnamed #2"
        fill="none" stroke="black" stroke-width="1"
        d="M 278.73,551.64
           C 278.73,551.64 276.88,548.88 276.88,548.88
             276.88,548.88 276.69,545.94 276.69,545.94
             276.69,545.94 278.00,542.56 278.00,542.56
             278.00,542.56 279.50,540.44 279.62,540.44
             279.75,540.44 281.62,537.62 281.69,537.56
             281.75,537.50 284.88,534.75 285.06,534.81
             285.25,534.88 287.88,534.31 288.06,534.31
             288.25,534.31 291.62,536.25 291.88,536.38
             292.12,536.50 295.88,538.75 295.88,538.81
             295.88,538.88 297.50,538.94 297.69,539.06
             297.88,539.19 301.25,538.81 301.31,539.00
             301.38,539.19 302.62,536.75 302.69,536.62
             302.75,536.50 303.50,533.94 303.50,533.88
             303.50,533.81 304.31,532.06 304.38,531.81
             304.44,531.56 305.94,530.81 305.94,530.81
             305.94,530.81 306.75,529.75 306.75,529.75
             306.75,529.75 306.81,527.31 306.88,527.12
             306.94,526.94 307.19,524.44 307.12,524.38
             307.06,524.31 304.25,522.12 304.31,521.88
             304.38,521.62 302.69,519.06 302.69,519.06
             302.69,519.06 301.31,516.50 301.31,516.50
             301.31,516.50 301.88,513.62 301.88,513.62
             301.88,513.62 303.94,511.56 303.94,511.50
             303.94,511.44 304.69,509.75 304.69,509.69
             304.69,509.62 303.44,507.38 303.44,507.31
             303.44,507.25 303.25,504.12 303.25,504.00
             303.25,503.88 304.62,500.19 304.62,500.12
             304.62,500.06 306.06,497.94 306.06,497.94
             306.06,497.94 307.75,494.69 307.75,494.69
             307.75,494.69 309.44,492.06 309.44,492.00
             309.44,491.94 311.06,489.62 311.06,489.56
             311.06,489.50 312.94,487.81 313.00,487.75
             313.06,487.69 314.44,485.75 314.50,485.69
             314.56,485.62 315.88,483.31 315.88,483.25
             315.88,483.19 316.94,480.75 317.00,480.69
             317.06,480.62 318.88,479.00 318.94,478.81
             319.00,478.62 320.94,477.69 321.00,477.31
             321.06,476.94 322.56,476.06 322.62,475.94
             322.69,475.81 324.43,478.00 324.43,478.00
             324.43,478.00 326.48,477.74 326.48,477.74
             326.48,477.74 327.87,477.22 327.96,477.22
             328.04,477.22 329.48,475.52 329.48,475.52
             329.48,475.52 330.04,473.04 330.04,472.96
             330.04,472.87 329.04,471.09 329.04,471.00
             329.04,470.91 326.48,470.30 326.48,470.26
             326.48,470.22 324.78,469.48 324.78,469.43
             324.78,469.39 322.65,468.39 322.65,468.35
             322.65,468.30 319.96,466.52 319.91,466.52
             319.87,466.52 317.57,464.35 317.57,464.30
             317.57,464.26 316.22,463.39 316.22,463.35
             316.22,463.30 313.78,462.22 313.83,462.22
             313.87,462.22 311.39,461.65 311.39,461.65
             311.39,461.65 308.22,459.74 308.22,459.74
             308.22,459.74 307.22,457.74 307.22,457.70
             307.22,457.65 307.04,455.78 307.04,455.70
             307.04,455.61 305.83,454.39 305.87,454.26
             305.91,454.13 304.04,452.91 304.04,452.74
             304.04,452.57 302.83,451.30 302.83,451.26
             302.83,451.22 302.26,447.61 302.22,447.57
             302.17,447.52 303.04,446.00 303.04,445.96
             303.04,445.91 304.78,444.43 304.87,444.35
             304.96,444.26 306.65,443.57 306.91,443.52
             307.17,443.48 309.61,442.83 309.78,442.87
             309.96,442.91 314.26,441.87 314.43,441.96
             314.61,442.04 317.30,441.83 317.30,441.83
             317.30,441.83 319.17,441.43 319.22,441.43
             319.26,441.43 321.39,439.83 321.39,439.78
             321.39,439.74 322.83,437.87 322.83,437.83
             322.83,437.78 324.26,436.13 324.26,436.13
             324.26,436.13 326.62,435.88 326.62,435.88
             326.62,435.88 327.55,437.09 327.55,437.09
             327.55,437.09 329.55,439.09 329.55,439.09
             329.55,439.09 331.91,441.18 331.91,441.18
             331.91,441.18 333.00,443.91 333.00,443.91
             333.00,443.91 334.82,445.82 334.82,445.91
             334.82,446.00 337.36,447.18 337.36,447.18
             337.36,447.18 339.73,448.27 339.73,448.36
             339.73,448.45 341.73,450.64 341.73,450.64
             341.73,450.64 344.73,452.91 344.73,452.91
             344.73,452.91 348.82,455.00 348.82,455.00
             348.82,455.00 352.27,455.36 352.27,455.36
             352.27,455.36 358.36,455.27 358.36,455.27
             358.36,455.27 361.82,455.00 361.82,455.00
             361.82,455.00 365.27,456.00 365.27,456.00
             365.27,456.00 369.09,456.27 369.09,456.27
             369.09,456.27 373.27,455.27 373.27,455.27
             373.27,455.27 376.09,455.18 376.09,455.18
             376.09,455.18 379.45,453.36 379.45,453.36
             379.45,453.36 383.73,453.55 383.73,453.64
             383.73,453.73 388.27,455.36 388.27,455.36
             388.27,455.36 393.55,458.82 393.55,458.91
             393.55,459.00 397.64,460.09 397.64,460.09
             397.64,460.09 404.18,461.45 404.18,461.45
             404.18,461.45 407.09,462.55 407.09,462.55
             407.09,462.55 410.36,464.73 410.36,464.73
             410.36,464.73 410.55,470.36 410.55,470.36
             410.55,470.36 414.55,474.55 414.73,474.55
             414.91,474.55 415.27,479.82 415.27,480.18
             415.27,480.55 416.55,490.55 416.55,490.55
             416.55,490.55 417.27,502.91 417.27,502.91
             417.27,502.91 417.27,511.45 417.27,511.64
             417.27,511.82 417.64,521.82 417.64,521.82
             417.64,521.82 417.09,538.73 417.09,539.09
             417.09,539.45 418.55,656.00 418.55,656.00
             418.55,656.00 412.00,655.82 412.00,655.82
             412.00,655.82 407.82,658.00 407.82,658.00
             407.82,658.00 404.55,661.09 404.55,661.09
             404.55,661.09 404.00,664.00 404.00,664.00
             404.00,664.00 406.36,667.45 406.36,667.45
             406.36,667.45 407.64,670.36 407.82,670.73
             408.00,671.09 406.91,675.45 406.91,675.45
             406.91,675.45 403.27,678.36 403.27,678.36
             403.27,678.36 398.00,680.91 398.18,680.91
             398.36,680.91 392.00,682.73 392.00,682.73
             392.00,682.73 386.36,686.18 386.36,686.18
             386.36,686.18 382.00,687.82 382.00,687.82
             382.00,687.82 379.64,689.64 379.64,689.64
             379.64,689.64 380.36,691.45 380.36,691.45
             380.36,691.45 377.64,693.45 377.64,693.45
             377.64,693.45 376.91,696.18 376.91,696.18
             376.91,696.18 376.73,700.73 376.73,701.09
             376.73,701.45 375.82,704.18 375.82,704.18
             375.82,704.18 373.64,703.64 373.64,703.64
             373.64,703.64 370.91,701.45 370.91,701.45
             370.91,701.45 369.45,699.27 369.45,699.27
             369.45,699.27 365.45,699.09 365.45,699.09
             365.45,699.09 361.64,696.73 361.64,696.73
             361.64,696.73 359.82,695.82 359.82,695.82
             359.82,695.82 357.09,696.55 356.91,696.91
             356.73,697.27 351.82,698.00 352.00,698.00
             352.18,698.00 349.50,701.00 349.50,701.00
             349.50,701.00 347.00,704.25 347.00,704.25
             347.00,704.25 345.12,707.62 345.12,707.62
             345.12,707.62 341.62,707.88 341.62,707.75
             341.62,707.62 338.12,709.38 338.00,709.50
             337.88,709.62 333.00,710.88 333.00,710.88
             333.00,710.88 329.75,711.88 329.75,711.88
             329.75,711.88 326.38,714.50 326.38,714.50
             326.38,714.50 324.88,717.12 324.88,717.12
             324.88,717.12 322.00,716.00 322.00,716.00
             322.00,716.00 318.12,714.12 318.12,714.12
             318.12,714.12 300.25,723.50 300.25,723.50
             300.25,723.50 248.12,692.62 248.12,692.62
             248.12,692.62 179.12,721.38 179.12,721.38
	     179.12,721.38 177.00,722.44 177.00,722.44 M276.88,548.88
           C 276.88,548.88 276.88,548.88 276.88,548.88
             276.88,548.88 278.73,551.64 278.73,551.64
             278.73,551.64 278.73,551.64 278.73,551.64
             278.73,551.64 278.73,551.64 278.73,551.64
             278.73,551.64 280.12,553.88 280.12,553.88
             280.12,553.88 280.12,553.88 280.12,553.88
             280.12,553.88 280.12,553.88 280.12,553.88
             280.12,553.88 279.75,555.81 279.75,555.81
             279.75,555.81 279.75,555.81 279.75,555.81
             279.75,555.81 279.75,555.81 279.75,555.81
             279.75,555.81 279.62,557.19 279.62,557.19
             279.62,557.19 279.62,557.19 279.62,557.19
             279.62,557.19 279.62,557.19 279.62,557.19
             279.62,557.19 278.62,558.69 278.62,558.69
             278.62,558.69 278.62,558.69 278.62,558.69
             278.62,558.69 278.62,558.69 278.62,558.69
             278.62,558.69 278.19,560.38 278.19,560.38
             278.19,560.38 278.19,560.38 278.19,560.38
             278.19,560.38 278.19,560.38 278.19,560.38
             278.19,560.38 277.19,562.44 277.19,562.44
             277.19,562.44 277.19,562.44 277.19,562.44
             277.19,562.44 277.19,562.44 277.19,562.44
             277.19,562.44 277.12,564.62 277.12,564.62
             277.12,564.62 277.12,564.62 277.12,564.62
             277.12,564.62 277.12,564.62 277.12,564.62
             277.12,564.62 277.81,566.69 277.81,566.69
             277.81,566.69 277.81,566.69 277.81,566.69
             277.81,566.69 277.81,566.69 277.81,566.69
             277.81,566.69 279.31,567.94 279.31,567.94
             279.31,567.94 279.31,567.94 279.31,567.94
             279.31,567.94 279.31,567.94 279.31,567.94
             279.31,567.94 280.19,569.94 280.19,569.94
             280.19,569.94 280.19,569.94 280.19,569.94
             280.19,569.94 280.19,569.94 280.19,569.94
             280.19,569.94 280.75,571.94 280.75,571.94
             280.75,571.94 280.75,571.94 280.75,571.94
             280.75,571.94 280.75,571.94 280.75,571.94
             280.75,571.94 281.06,574.00 281.06,574.00
             281.06,574.00 281.06,574.00 281.06,574.00
             281.06,574.00 281.06,574.00 281.06,574.00
             281.06,574.00 280.88,576.12 280.88,576.12
             280.88,576.12 280.88,576.12 280.88,576.12
             280.88,576.12 280.88,576.12 280.88,576.12
             280.88,576.12 280.44,577.75 280.44,577.75
             280.44,577.75 280.44,577.75 280.44,577.75
             280.44,577.75 280.44,577.75 280.44,577.75
             280.44,577.75 278.88,579.19 278.88,579.19
             278.88,579.19 278.88,579.19 278.88,579.19
             278.88,579.19 278.88,579.19 278.88,579.19
             278.88,579.19 278.19,580.38 278.19,580.38
             278.19,580.38 278.19,580.38 278.19,580.38
             278.19,580.38 278.19,580.38 278.19,580.38
             278.19,580.38 277.31,581.75 277.31,581.75
             277.31,581.75 277.31,581.75 277.31,581.75
             277.31,581.75 277.31,581.75 277.31,581.75
             277.31,581.75 276.50,582.62 276.50,582.62
             276.50,582.62 276.50,582.62 276.50,582.62
             276.50,582.62 276.50,582.62 276.50,582.62
             276.50,582.62 275.81,584.19 275.81,584.19
             275.81,584.19 275.81,584.19 275.81,584.19
             275.81,584.19 275.81,584.19 275.81,584.19
             275.81,584.19 275.75,586.12 275.75,586.12
             275.75,586.12 275.75,586.12 275.75,586.12
             275.75,586.12 275.75,586.12 275.75,586.12
             275.75,586.12 275.69,587.50 275.69,587.50
             275.69,587.50 275.69,587.50 275.69,587.50
             275.69,587.50 275.69,587.50 275.69,587.50
             275.69,587.50 274.50,588.81 274.50,588.81
             274.50,588.81 274.50,588.81 274.50,588.81
             274.50,588.81 274.50,588.81 274.50,588.81
             274.50,588.81 273.38,589.44 273.38,589.44
             273.38,589.44 273.38,589.44 273.38,589.44
             273.38,589.44 273.38,589.44 273.38,589.44
             273.38,589.44 271.31,590.75 271.31,590.75
             271.31,590.75 271.31,590.75 271.31,590.75
             271.31,590.75 271.31,590.75 271.31,590.75
             271.31,590.75 270.69,592.06 270.69,592.06
             270.69,592.06 270.69,592.06 270.69,592.06
             270.69,592.06 270.69,592.06 270.69,592.06
             270.69,592.06 268.09,594.45 268.09,594.45
             268.09,594.45 268.09,594.45 268.09,594.45
             268.09,594.45 268.09,594.45 268.09,594.45
             268.09,594.45 263.55,597.73 263.55,597.73
             263.55,597.73 263.55,597.73 263.55,597.73
             263.55,597.73 263.55,597.73 263.55,597.73
             263.55,597.73 257.73,600.91 257.73,600.91
             257.73,600.91 257.73,600.91 257.73,600.91
             257.73,600.91 257.73,600.91 257.73,600.91
             257.73,600.91 254.27,602.00 254.27,602.00
             254.27,602.00 254.27,602.00 254.27,602.00
             254.27,602.00 254.27,602.00 254.27,602.00
             254.27,602.00 251.82,602.82 251.82,602.82
             251.82,602.82 251.82,602.82 251.82,602.82
             251.82,602.82 251.82,602.82 251.82,602.82
             251.82,602.82 248.64,603.36 248.64,603.36
             248.64,603.36 248.64,603.36 248.64,603.36
             248.64,603.36 248.64,603.36 248.64,603.36
             248.64,603.36 245.73,604.36 245.73,604.36
             245.73,604.36 245.73,604.36 245.73,604.36
             245.73,604.36 245.73,604.36 245.73,604.36
             245.73,604.36 244.36,605.91 244.36,605.91
             244.36,605.91 244.36,605.91 244.36,605.91
             244.36,605.91 244.36,605.91 244.36,605.91
             244.36,605.91 241.27,608.18 241.27,608.18
             241.27,608.18 241.27,608.18 241.27,608.18
             241.27,608.18 241.27,608.18 241.27,608.18
             241.27,608.18 233.82,614.55 233.82,614.55
             233.82,614.55 233.82,614.55 233.82,614.55
             233.82,614.55 233.82,614.55 233.82,614.55
             233.82,614.55 233.80,615.78 233.80,615.78
             233.80,615.78 233.80,615.78 233.80,615.78
             233.80,615.78 233.80,615.78 233.80,615.78
             233.80,615.78 233.18,617.36 233.18,617.36
             233.18,617.36 233.18,617.36 233.18,617.36
             233.18,617.36 233.18,617.36 233.18,617.36
             233.18,617.36 231.73,618.73 231.73,618.73
             231.73,618.73 231.73,618.73 231.73,618.73
             231.73,618.73 231.73,618.73 231.73,618.73
             231.73,618.73 231.36,621.00 231.36,621.00
             231.36,621.00 231.36,621.09 231.36,621.09
             231.36,621.09 231.36,621.18 231.36,621.18
             231.36,621.18 230.64,622.91 230.64,622.91
             230.64,622.91 230.64,622.91 230.64,622.91
             230.64,622.91 230.64,622.91 230.64,622.91
             230.64,622.91 229.64,626.00 229.64,626.00
             229.64,626.00 229.64,626.00 229.64,626.00
             229.64,626.00 229.64,626.00 229.64,626.00
             229.64,626.00 229.00,628.73 229.00,628.73
             229.00,628.73 229.00,628.82 229.00,628.82
             229.00,628.82 229.00,628.91 229.00,628.91
             229.00,628.91 227.09,631.18 227.09,631.18
             227.09,631.18 227.09,631.18 227.09,631.18
             227.09,631.18 227.09,631.18 227.09,631.18
             227.09,631.18 224.82,633.27 224.82,633.27
             224.82,633.27 224.82,633.27 224.82,633.27
             224.82,633.27 224.82,633.27 224.82,633.27
             224.82,633.27 222.91,635.64 222.91,635.64
             222.91,635.64 222.91,635.64 222.91,635.64
             222.91,635.64 222.91,635.64 222.91,635.64
             222.91,635.64 218.91,638.09 218.91,638.09
             218.91,638.09 218.91,638.09 218.91,638.09
             218.91,638.09 218.91,638.09 218.91,638.09
             218.91,638.09 216.64,638.91 216.64,638.91
             216.64,638.91 216.64,638.91 216.64,638.91
             216.64,638.91 216.64,638.91 216.64,638.91
             216.64,638.91 212.91,639.82 212.91,639.82
             212.91,639.82 212.91,639.82 212.91,639.82
             212.91,639.82 212.91,639.82 212.91,639.82
             212.91,639.82 209.64,641.09 209.64,641.09
             209.64,641.09 209.64,641.09 209.64,641.09
             209.64,641.09 209.64,641.09 209.64,641.09
             209.64,641.09 207.00,641.55 207.00,641.55
             207.00,641.55 207.00,641.55 207.00,641.55
             207.00,641.55 207.00,641.55 207.00,641.55
             207.00,641.55 204.36,642.00 204.36,642.00
             204.36,642.00 204.36,642.00 204.36,642.00
             204.36,642.00 204.36,642.00 204.36,642.00
             204.36,642.00 201.36,643.36 201.36,643.36
             201.36,643.36 201.36,643.36 201.36,643.36
             201.36,643.36 201.36,643.36 201.36,643.36
             201.36,643.36 198.00,644.82 198.00,644.82
             198.00,644.82 198.00,644.82 198.00,644.82
             198.00,644.82 198.00,644.82 198.00,644.82
             198.00,644.82 196.36,646.27 196.36,646.27
             196.36,646.27 196.36,646.27 196.36,646.27
             196.36,646.27 196.36,646.27 196.36,646.27
             196.36,646.27 191.36,650.27 191.36,650.27
             191.36,650.27 191.36,650.27 191.36,650.27
             191.36,650.27 191.36,650.27 191.36,650.27
             191.36,650.27 190.25,651.19 190.25,651.19
             190.25,651.19 190.25,651.19 190.25,651.19
             190.25,651.19 190.25,651.19 190.25,651.19
             190.25,651.19 188.75,652.22 188.75,652.22
             188.75,652.22 188.72,652.22 188.72,652.22
             188.72,652.22 188.69,652.22 188.69,652.22
             188.69,652.22 186.94,652.66 186.94,652.66
             186.94,652.66 186.94,652.66 186.94,652.66
             186.94,652.66 186.94,652.66 186.94,652.66
             186.94,652.66 184.94,652.56 184.94,652.56
             184.94,652.56 184.94,652.56 184.94,652.56
             184.94,652.56 184.94,652.56 184.94,652.56
             184.94,652.56 183.09,652.41 183.09,652.41
             183.09,652.41 183.09,652.41 183.09,652.41
             183.09,652.41 183.09,652.41 183.09,652.41
             183.09,652.41 181.38,651.78 181.38,651.78
             181.38,651.78 181.38,651.78 181.38,651.78
             181.38,651.78 181.38,651.78 181.38,651.78
             181.38,651.78 179.28,651.56 179.28,651.56
             179.28,651.56 179.28,651.56 179.28,651.56
             179.28,651.56 179.28,651.56 179.28,651.56
             179.28,651.56 177.25,651.75 177.25,651.75
             177.25,651.75 177.25,651.75 177.25,651.75
             177.25,651.75 177.25,651.75 177.25,651.75
             177.25,651.75 175.12,650.81 175.12,650.81
             175.12,650.81 175.12,650.81 175.12,650.81
             175.12,650.81 175.12,650.81 175.12,650.81
             175.12,650.81 172.75,650.44 172.75,650.44
             172.75,650.44 172.75,650.44 172.75,650.44
             172.75,650.44 172.75,650.44 172.75,650.44
             172.75,650.44 169.69,649.88 169.69,649.88
             169.69,649.88 169.69,649.88 169.69,649.88
             169.69,649.88 169.69,649.88 169.69,649.88
             169.69,649.88 167.94,650.00 167.94,650.00
             167.94,650.00 167.94,650.00 167.94,650.00
             167.94,650.00 167.94,650.00 167.94,650.00
             167.94,650.00 166.25,650.44 166.25,650.44
             166.25,650.44 166.25,650.44 166.25,650.44
             166.25,650.44 166.25,650.44 166.25,650.44
             166.25,650.44 164.19,650.75 164.19,650.75
             164.19,650.75 164.19,650.75 164.19,650.75
             164.19,650.75 164.19,650.75 164.19,650.75
             164.19,650.75 162.19,652.62 162.19,652.62
             162.19,652.62 162.19,652.62 162.19,652.62
             162.19,652.62 162.19,652.62 162.19,652.62
             162.19,652.62 160.94,654.44 160.94,654.44
             160.94,654.44 160.94,654.44 160.94,654.44
             160.94,654.44 160.94,654.44 160.94,654.44
             160.94,654.44 160.00,656.69 160.00,656.69
             160.00,656.69 160.00,656.69 160.00,656.69
             160.00,656.69 160.00,656.69 160.00,656.69
             160.00,656.69 158.94,659.81 158.94,659.81
             158.94,659.81 158.94,659.81 158.94,659.81
             158.94,659.81 158.94,659.81 158.94,659.81
             158.94,659.81 158.25,662.25 158.25,662.25
             158.25,662.25 158.25,662.25 158.25,662.25
             158.25,662.25 158.25,662.25 158.25,662.25
             158.25,662.25 156.44,663.00 156.44,663.00
             156.44,663.00 156.44,663.00 156.44,663.00
             156.44,663.00 156.44,663.00 156.44,663.00
             156.44,663.00 154.94,664.69 154.94,664.69
             154.94,664.69 154.94,664.69 154.94,664.69
             154.94,664.69 154.94,664.69 154.94,664.69
             154.94,664.69 152.00,666.31 152.00,666.31
             152.00,666.31 152.00,666.31 152.00,666.31
             152.00,666.31 152.00,666.31 152.00,666.31
             152.00,666.31 149.00,667.19 149.00,667.19
             149.00,667.19 149.00,667.19 149.00,667.19
             149.00,667.19 149.00,667.19 149.00,667.19
             149.00,667.19 144.62,667.94 144.62,667.94
             144.62,667.94 144.62,667.94 144.62,667.94
             144.62,667.94 144.62,667.94 144.62,667.94
             144.62,667.94 142.50,669.94 142.50,669.94
             142.50,669.94 142.50,669.94 142.50,669.94
             142.50,669.94 142.50,669.94 142.50,669.94
             142.50,669.94 128.25,682.62 128.25,682.62
             128.25,682.62 128.25,682.62 128.25,682.62
             128.25,682.62 128.25,682.62 128.25,682.62
             128.25,682.62 127.00,684.69 127.00,684.69
             127.00,684.69 127.00,684.69 127.00,684.69
             127.00,684.69 127.00,684.69 127.00,684.69
             127.00,684.69 127.19,686.56 127.19,686.56
             127.19,686.56 127.19,686.56 127.19,686.56
             127.19,686.56 127.19,686.56 127.19,686.56
             127.19,686.56 128.62,687.69 128.62,687.69
             128.62,687.69 128.62,687.69 128.62,687.69
             128.62,687.69 128.62,687.69 128.62,687.69
             128.62,687.69 131.69,688.44 131.69,688.44
             131.69,688.44 131.69,688.44 131.69,688.44
             131.69,688.44 131.69,688.44 131.69,688.44
             131.69,688.44 134.81,688.69 134.81,688.69
             134.81,688.69 134.81,688.69 134.81,688.69
             134.81,688.69 134.81,688.69 134.81,688.69
             134.81,688.69 136.44,688.75 136.44,688.75
             136.44,688.75 136.44,688.75 136.44,688.75
             136.44,688.75 136.44,688.75 136.44,688.75
             136.44,688.75 138.06,690.00 138.06,690.00
             138.06,690.00 138.06,690.00 138.06,690.00
             138.06,690.00 138.06,690.00 138.06,690.00
             138.06,690.00 139.38,692.50 139.38,692.50
             139.38,692.50 139.38,692.50 139.38,692.50
             139.38,692.50 139.38,692.50 139.38,692.50
             139.38,692.50 141.12,695.19 141.12,695.19
             141.12,695.19 141.12,695.19 141.12,695.19
             141.12,695.19 141.12,695.19 141.12,695.19
             141.12,695.19 142.25,697.12 142.25,697.12
             142.25,697.12 142.25,697.12 142.25,697.12
             142.25,697.12 142.25,697.12 142.25,697.12
             142.25,697.12 145.06,698.31 145.06,698.31
             145.06,698.31 145.06,698.31 145.06,698.31
             145.06,698.31 145.06,698.31 145.06,698.31
             145.06,698.31 147.75,699.69 147.75,699.69
             147.75,699.69 147.75,699.69 147.75,699.69
             147.75,699.69 147.75,699.69 147.75,699.69
             147.75,699.69 151.56,701.31 151.56,701.31
             151.56,701.31 151.56,701.31 151.56,701.31
             151.56,701.31 151.56,701.31 151.56,701.31
             151.56,701.31 154.25,702.69 154.25,702.69
             154.25,702.69 154.25,702.69 154.25,702.69
             154.25,702.69 154.25,702.69 154.25,702.69
             154.25,702.69 157.50,704.56 157.50,704.56
             157.50,704.56 157.50,704.56 157.50,704.56
             157.50,704.56 157.50,704.56 157.50,704.56
             157.50,704.56 159.56,706.81 159.56,706.81
             159.56,706.81 159.56,706.81 159.56,706.81
             159.56,706.81 159.56,706.81 159.56,706.81
             159.56,706.81 161.62,708.56 161.62,708.56
             161.62,708.56 161.62,708.56 161.62,708.56
             161.62,708.56 161.62,708.56 161.62,708.56
             161.62,708.56 163.88,711.31 163.88,711.31
             163.88,711.31 163.88,711.31 163.88,711.31
             163.88,711.31 163.88,711.31 163.88,711.31
             163.88,711.31 165.19,713.44 165.19,713.44
             165.19,713.44 165.19,713.44 165.19,713.44
             165.19,713.44 165.19,713.44 165.19,713.44
             165.19,713.44 167.00,715.50 167.00,715.50
             167.00,715.50 167.00,715.50 167.00,715.50
             167.00,715.50 167.00,715.50 167.00,715.50
             167.00,715.50 169.19,717.25 169.19,717.25
             169.19,717.25 169.19,717.25 169.19,717.25
             169.19,717.25 169.19,717.25 169.19,717.25
             169.19,717.25 172.88,717.88 172.88,717.88
             172.88,717.88 172.88,717.88 172.88,717.88
             172.88,717.88 172.88,717.88 172.88,717.88
             172.88,717.88 175.62,719.94 175.62,719.94
             175.62,719.94 175.62,719.94 175.62,719.94
             175.62,719.94 175.62,719.94 175.62,719.94
             175.62,719.94 177.00,722.44 177.00,722.44
             177.00,722.44 177.00,722.44 177.00,722.44" />
</svg>
