<?xml version="1.0" encoding="UTF-8" standalone="no"?>
<!DOCTYPE svg PUBLIC "-//W3C//DTD SVG 20010904//EN"
              "http://www.w3.org/TR/2001/REC-SVG-20010904/DTD/svg10.dtd">

<svg xmlns="http://www.w3.org/2000/svg"
     width="5.32497in" height="5.12478in"
     viewBox="0 0 798 768">
  <path id="Unnamed #2"
        fill="none" stroke="black" stroke-width="1"
        d="M 568.64,356.73
           C 568.64,356.73 564.73,357.64 564.73,357.64
             564.73,357.64 560.00,361.09 560.00,361.09
             560.00,361.09 555.82,363.27 555.82,363.27
             555.82,363.27 551.45,364.55 551.45,364.55
             551.45,364.55 546.73,367.82 546.73,367.82
             546.73,367.82 542.73,368.55 542.73,368.55
             542.73,368.55 541.27,373.27 541.27,373.27
             541.27,373.27 537.45,375.09 537.45,375.09
             537.45,375.09 534.73,372.91 534.73,372.91
             534.73,372.91 531.82,370.00 531.82,370.00
             531.82,370.00 528.36,369.09 528.36,369.09
             528.36,369.09 524.55,368.73 524.55,368.73
             524.55,368.73 521.64,366.55 521.64,366.55
             521.64,366.55 520.91,369.27 520.91,369.27
             520.91,369.27 520.82,371.64 520.82,371.64
             520.82,371.64 519.45,373.00 519.45,373.00
             519.45,373.00 517.55,374.55 517.55,374.55
             517.55,374.55 516.91,376.09 516.91,376.09
             516.91,376.09 514.91,377.27 514.91,377.27
             514.91,377.27 513.09,377.55 513.09,377.55
             513.09,377.55 511.18,378.36 511.18,378.36
             511.18,378.36 510.27,379.64 510.27,379.64
             510.27,379.64 507.55,381.36 507.45,381.45
             507.36,381.55 504.91,381.73 504.91,381.73
             504.91,381.73 502.73,381.55 502.55,381.55
             502.36,381.55 500.00,381.45 500.00,381.55
             500.00,381.64 498.27,382.09 498.18,382.09
             498.09,382.09 496.18,384.64 496.18,384.82
             496.18,385.00 494.55,387.91 494.45,388.00
             494.36,388.09 493.18,390.18 493.09,390.55
             493.00,390.91 491.27,393.18 491.27,393.36
             491.27,393.55 489.00,394.91 489.00,394.91
             489.00,394.91 486.18,394.73 486.18,394.73
             486.18,394.73 483.36,395.73 483.36,395.73
             483.36,395.73 480.27,398.00 480.36,397.91
             480.45,397.82 476.09,399.55 476.09,399.55
             476.09,399.55 473.36,400.91 473.36,400.91
             473.36,400.91 470.00,402.91 470.00,403.00
             470.00,403.09 467.36,406.27 467.36,406.36
             467.36,406.45 466.45,409.18 466.45,409.18
             466.45,409.18 465.82,411.55 465.82,411.55
             465.82,411.55 463.73,412.27 463.73,412.27
             463.73,412.27 461.55,413.36 461.55,413.36
             461.55,413.36 460.36,416.45 460.36,416.55
             460.36,416.64 458.45,419.82 458.45,419.82
             458.45,419.82 456.45,419.64 456.45,419.64
             456.45,419.64 454.00,419.36 454.00,419.36
             454.00,419.36 452.09,418.82 452.09,418.82
             452.09,418.82 450.18,418.91 450.18,418.91
             450.18,418.91 448.91,419.45 448.91,419.45
             448.91,419.45 445.64,419.36 445.64,419.36
             445.64,419.36 443.18,418.64 443.18,418.64
             443.18,418.64 442.27,417.82 442.18,417.82
             442.09,417.82 439.91,417.27 439.91,417.27
             439.91,417.27 438.18,418.27 438.18,418.27
             438.18,418.27 437.64,420.45 437.73,420.82
             437.82,421.18 437.55,423.91 438.09,424.18
             438.64,424.45 440.09,426.73 440.09,426.73
             440.09,426.73 443.45,428.55 443.45,428.55
             443.45,428.55 446.36,431.09 446.36,431.09
             446.36,431.09 448.82,432.73 448.82,432.73
             448.82,432.73 449.91,435.00 449.91,435.09
             449.91,435.18 450.64,437.91 450.64,437.91
             450.64,437.91 453.45,439.64 453.45,439.64
             453.45,439.64 453.45,441.64 453.45,441.64
             453.45,441.64 452.09,443.27 452.09,443.27
             452.09,443.27 449.91,444.36 449.82,444.45
             449.73,444.55 449.73,446.55 449.73,446.73
             449.73,446.91 451.00,449.91 451.09,449.91
             451.18,449.91 452.55,451.55 452.55,452.09
             452.55,452.64 452.55,456.64 452.55,456.64
             452.55,456.64 454.18,458.36 454.27,458.36
             454.36,458.36 460.00,461.27 460.18,461.45
             460.36,461.64 465.36,463.00 465.36,463.00
             465.36,463.00 470.00,464.00 470.00,464.00
             470.00,464.00 472.91,463.45 473.00,463.27
             473.09,463.09 475.55,462.00 475.55,461.91
             475.55,461.82 476.45,460.82 476.55,460.82
             476.64,460.82 477.45,462.55 477.45,462.55
             477.45,462.55 477.45,463.55 477.55,463.64
             477.64,463.73 479.45,464.73 479.45,464.73
             479.45,464.73 481.73,465.45 481.82,465.45
             481.91,465.45 485.18,466.64 485.18,466.64
             485.18,466.64 485.55,469.09 485.55,469.36
             485.55,469.64 485.36,473.73 485.36,473.73
             485.36,473.73 485.27,477.64 485.27,477.64
             485.27,477.64 484.64,480.09 484.73,480.09
             484.82,480.09 484.27,482.36 484.27,482.45
             484.27,482.55 482.91,484.27 482.91,484.27
             482.91,484.27 480.36,486.09 480.36,486.09
             480.36,486.09 477.82,488.00 477.73,488.09
             477.64,488.18 474.64,491.09 474.64,491.18
             474.64,491.27 473.00,493.09 473.00,493.36
             473.00,493.64 472.09,495.55 472.09,495.55
             472.09,495.55 470.82,499.36 470.82,499.36
             470.82,499.36 470.00,502.73 470.00,502.73
             470.00,502.73 469.73,506.09 469.73,506.09
             469.73,506.09 479.50,502.00 479.50,502.00
             479.50,502.00 485.75,498.88 485.75,498.88
             485.75,498.88 547.64,469.45 547.64,469.27
             547.64,469.09 610.18,468.73 610.36,468.73
             610.55,468.73 604.36,458.55 604.36,458.55
             604.36,458.55 604.18,454.36 604.18,454.36
             604.18,454.36 604.73,451.09 604.73,451.09
             604.73,451.09 605.82,448.00 605.82,448.00
             605.82,448.00 606.55,444.00 606.55,444.00
             606.55,444.00 607.45,441.09 607.45,441.09
             607.45,441.09 609.27,436.36 609.27,436.36
             609.27,436.36 606.18,432.55 606.18,432.36
             606.18,432.18 600.55,426.73 600.55,426.73
             600.55,426.73 598.00,422.36 598.00,422.18
             598.00,422.00 593.27,414.91 593.27,414.91
             593.27,414.91 590.00,411.27 590.00,411.09
             590.00,410.91 587.27,408.55 587.27,408.55
             587.27,408.55 586.00,398.91 586.00,398.73
             586.00,398.55 580.55,392.18 580.55,392.18
             580.55,392.18 576.18,390.55 576.18,390.55
             576.18,390.55 573.64,387.27 573.64,387.27
             573.64,387.27 571.38,385.06 571.38,385.06
             571.38,385.06 570.06,382.88 570.06,382.88
             570.06,382.88 570.06,381.19 570.06,381.19
             570.06,381.19 569.81,379.19 569.81,379.19
             569.81,379.19 569.06,377.38 569.06,377.38
             569.06,377.38 567.75,375.81 567.75,375.75
             567.75,375.69 566.44,374.00 566.44,373.94
             566.44,373.88 566.81,371.19 566.81,371.19
             566.81,371.19 567.31,368.56 567.44,368.12
             567.56,367.69 567.75,365.12 567.75,365.00
             567.75,364.88 567.62,362.25 567.62,362.00
             567.62,361.75 568.44,358.31 568.44,358.31
	     568.44,358.31 568.64,356.73 568.64,356.73" />
</svg>
