<?xml version="1.0" encoding="UTF-8" standalone="no"?>
<!DOCTYPE svg PUBLIC "-//W3C//DTD SVG 20010904//EN"
              "http://www.w3.org/TR/2001/REC-SVG-20010904/DTD/svg10.dtd">

<svg xmlns="http://www.w3.org/2000/svg"
     width="5.32497in" height="5.12478in"
     viewBox="0 0 798 768">
  <path id="Unnamed"
        fill="none" stroke="black" stroke-width="1"
        d="M 174.25,412.00
           C 174.25,412.00 178.50,414.50 178.50,414.50
             178.50,414.50 180.25,418.00 180.25,418.00
             180.25,418.00 184.50,424.00 184.50,424.00
             184.50,424.00 183.25,428.00 183.25,428.00
             183.25,428.00 185.50,433.25 185.50,433.25
             185.50,433.25 187.25,438.50 187.25,438.50
             187.25,438.50 183.50,441.75 183.50,441.75
             183.50,441.75 181.50,446.00 181.50,446.00
             181.50,446.00 178.25,450.25 178.25,450.25
             178.25,450.25 174.50,452.50 174.50,452.50
             174.50,452.50 168.75,453.50 168.75,453.50
             168.75,453.50 165.25,454.75 165.25,454.75
             165.25,454.75 163.81,455.19 163.81,455.19
             163.81,455.19 162.12,454.62 162.12,454.62
             162.12,454.62 159.94,454.31 159.94,454.31
             159.94,454.31 158.19,456.38 158.19,456.38
             158.19,456.38 158.00,458.50 158.00,458.50
             158.00,458.50 158.44,460.25 158.44,460.25
             158.44,460.25 158.94,461.62 158.94,461.69
             158.94,461.75 159.12,463.69 159.12,463.69
             159.12,463.69 160.81,464.62 160.81,464.62
             160.81,464.62 163.00,464.50 163.00,464.50
             163.00,464.50 164.00,464.56 164.00,464.56
             164.00,464.56 164.88,465.06 164.88,465.06
             164.88,465.06 166.12,465.62 166.12,465.62
             166.12,465.62 167.00,466.06 167.06,466.06
             167.12,466.06 168.94,466.00 168.94,466.00
             168.94,466.00 170.25,464.94 170.25,464.94
             170.25,464.94 171.69,463.38 171.69,463.38
             171.69,463.38 173.12,463.25 173.12,463.31
             173.12,463.38 174.50,464.56 174.50,464.56
             174.50,464.56 175.94,465.75 175.94,465.75
             175.94,465.75 176.56,466.12 176.56,466.12
             176.56,466.12 177.62,466.69 177.62,466.69
             177.62,466.69 179.25,467.56 179.25,467.56
             179.25,467.56 179.94,467.81 179.94,467.81
             179.94,467.81 181.44,468.25 181.44,468.25
             181.44,468.25 182.62,468.56 182.69,468.62
             182.75,468.69 184.75,468.94 184.75,468.94
             184.75,468.94 185.75,469.19 185.75,469.19
             185.75,469.19 186.56,469.69 186.56,469.69
             186.56,469.69 186.81,471.06 186.81,471.06
             186.81,471.06 187.00,472.94 187.00,472.94
             187.00,472.94 186.38,473.56 186.38,473.56
             186.38,473.56 186.31,475.19 186.31,475.19
             186.31,475.19 186.06,476.50 186.06,476.50
             186.06,476.50 186.25,477.94 186.25,477.94
             186.25,477.94 186.38,479.12 186.38,479.12
             186.38,479.12 187.25,479.81 187.25,479.81
             187.25,479.81 188.50,481.19 188.50,481.19
             188.50,481.19 188.88,483.12 188.88,483.06
             188.88,483.00 187.19,483.94 187.19,483.94
             187.19,483.94 185.88,485.75 185.88,485.75
             185.88,485.75 184.65,486.83 184.65,486.83
             184.65,486.83 183.52,488.48 183.52,488.48
             183.52,488.48 182.48,489.96 182.48,489.96
             182.48,489.96 181.52,490.91 181.52,490.91
             181.52,490.91 179.83,490.87 179.83,490.87
             179.83,490.87 177.91,491.57 177.91,491.57
             177.91,491.57 176.61,492.48 176.61,492.48
             176.61,492.48 174.48,493.87 174.48,493.87
             174.48,493.87 173.09,494.87 173.09,494.87
             173.09,494.87 173.52,496.04 173.48,496.04
             173.43,496.04 172.74,497.78 172.74,497.78
             172.74,497.78 173.26,499.43 173.26,499.43
             173.26,499.43 174.13,500.30 174.13,500.30
             174.13,500.30 174.39,501.22 174.39,501.22
             174.39,501.22 173.65,503.39 173.65,503.39
             173.65,503.39 172.35,505.13 172.35,505.13
             172.35,505.13 172.35,506.87 172.35,506.87
             172.35,506.87 171.70,508.96 171.70,508.96
             171.70,508.96 171.57,510.65 171.57,510.65
             171.57,510.65 171.70,512.17 171.70,512.17
             171.70,512.17 171.35,513.83 171.35,513.83
             171.35,513.83 171.22,515.57 171.22,515.57
             171.22,515.57 171.17,518.04 171.17,518.04
             171.17,518.04 170.57,518.78 170.57,518.78
             170.57,518.78 170.39,520.30 170.39,520.30
             170.39,520.30 170.43,522.48 170.43,522.48
             170.43,522.48 170.00,523.96 170.00,523.96
             170.00,523.96 169.61,525.17 169.61,525.17
             169.61,525.17 169.39,526.91 169.39,526.91
             169.39,526.91 168.74,529.35 168.74,529.35
             168.74,529.35 168.87,531.43 168.87,531.43
             168.87,531.43 170.22,532.09 170.26,532.04
             170.30,532.00 171.43,530.83 171.43,530.83
             171.43,530.83 172.30,529.96 172.30,529.96
             172.30,529.96 173.61,528.96 173.61,528.96
             173.61,528.96 174.48,528.17 174.48,528.13
             174.48,528.09 175.48,526.70 175.48,526.70
             175.48,526.70 175.39,524.48 175.39,524.48
             175.39,524.48 175.30,519.35 175.30,519.35
             175.30,519.35 182.91,512.04 182.91,512.04
             182.91,512.04 186.09,511.39 186.09,511.39
             186.09,511.39 188.22,511.04 188.22,511.04
             188.22,511.04 189.48,510.13 189.48,510.13
             189.48,510.13 190.91,509.74 190.91,509.78
             190.91,509.83 192.48,509.43 192.48,509.43
             192.48,509.43 196.17,508.96 196.17,508.96
             196.17,508.96 198.35,510.17 198.35,510.17
             198.35,510.17 199.91,511.17 199.91,511.17
             199.91,511.17 202.30,511.57 202.30,511.52
             202.30,511.48 205.83,510.96 205.83,510.96
             205.83,510.96 209.00,509.12 209.00,509.12
             209.00,509.12 211.12,510.62 211.12,510.62
             211.12,510.62 213.88,512.12 213.88,512.12
             213.88,512.12 217.62,512.12 217.62,512.12
             217.62,512.12 220.00,512.00 220.00,512.00
             220.00,512.00 222.00,511.88 222.00,511.88
             222.00,511.88 223.83,511.48 223.83,511.43
             223.83,511.39 225.91,510.78 225.96,510.78
             226.00,510.78 227.48,510.87 227.52,510.87
             227.57,510.87 229.70,510.96 229.70,510.96
             229.70,510.96 231.00,510.83 231.00,510.83
             231.00,510.83 232.35,510.00 232.35,510.00
             232.35,510.00 234.43,508.35 234.43,508.35
             234.43,508.35 235.78,507.48 235.78,507.48
             235.78,507.48 236.83,506.57 236.83,506.57
             236.83,506.57 237.65,505.52 237.65,505.52
             237.65,505.52 239.09,503.57 239.09,503.57
             239.09,503.57 240.35,502.65 240.35,502.65
             240.35,502.65 241.35,501.65 241.35,501.61
             241.35,501.57 242.70,500.70 242.70,500.70
             242.70,500.70 243.91,500.26 244.04,500.26
             244.17,500.26 245.39,500.78 245.39,500.78
             245.39,500.78 245.83,501.83 245.83,501.83
             245.83,501.83 245.78,503.26 245.78,503.39
             245.78,503.52 245.87,505.00 245.87,505.00
             245.87,505.00 245.61,506.39 245.61,506.39
             245.61,506.39 245.39,507.87 245.39,507.87
             245.39,507.87 246.43,509.43 246.43,509.43
             246.43,509.43 246.61,510.13 246.61,510.13
             246.61,510.13 247.61,510.87 247.61,510.87
             247.61,510.87 248.39,511.87 248.39,511.87
             248.39,511.87 249.96,512.74 249.96,512.74
             249.96,512.74 251.17,513.61 251.17,513.61
             251.17,513.61 253.22,514.52 253.22,514.52
             253.22,514.52 255.00,515.47 255.00,515.47
             255.00,515.47 256.88,516.62 256.88,516.62
             256.88,516.62 256.84,517.41 256.84,517.44
             256.84,517.47 256.81,518.34 256.84,518.38
             256.88,518.41 256.84,519.19 256.84,519.19
             256.84,519.19 256.26,520.83 256.26,520.83
             256.26,520.83 255.39,522.87 255.39,522.87
             255.39,522.87 255.39,524.35 255.39,524.35
             255.39,524.35 255.70,526.09 255.70,526.09
             255.70,526.09 256.52,527.39 256.52,527.39
             256.52,527.39 257.39,529.04 257.39,529.04
             257.39,529.04 257.00,529.87 257.00,529.87
             257.00,529.87 257.57,531.48 257.57,531.48
             257.57,531.48 257.78,533.04 257.78,533.09
             257.78,533.13 258.69,535.56 258.69,535.56
             258.69,535.56 258.06,537.69 258.06,537.69
             258.06,537.69 257.56,539.19 257.56,539.25
             257.56,539.31 256.94,540.38 256.94,540.44
             256.94,540.50 256.31,541.69 256.31,541.69
             256.31,541.69 256.25,543.69 256.25,543.69
             256.25,543.69 257.75,544.81 257.75,544.81
             257.75,544.81 259.93,547.16 259.93,547.16
             259.93,547.16 261.16,548.11 261.16,548.11
             261.16,548.11 261.96,549.02 261.96,549.02
             261.96,549.02 263.20,549.76 263.20,549.76
             263.20,549.76 264.64,550.58 264.64,550.58
             264.64,550.58 265.91,551.31 265.91,551.31
             265.91,551.31 269.12,551.38 269.12,551.38
             269.12,551.38 271.62,551.38 271.62,551.38
             271.62,551.38 273.75,550.50 273.75,550.50
             273.75,550.50 275.44,549.44 275.44,549.44
             275.44,549.44 276.88,548.88 276.88,548.88
             276.88,548.88 278.73,551.64 278.73,551.64
             278.73,551.64 280.12,553.88 280.12,553.88
             280.12,553.88 279.75,555.81 279.75,555.81
             279.75,555.81 279.62,557.19 279.62,557.19
             279.62,557.19 278.62,558.69 278.62,558.69
             278.62,558.69 278.19,560.38 278.19,560.38
             278.19,560.38 277.19,562.44 277.19,562.44
             277.19,562.44 277.12,564.62 277.12,564.62
             277.12,564.62 277.81,566.69 277.81,566.69
             277.81,566.69 279.31,567.94 279.31,567.94
             279.31,567.94 280.19,569.94 280.19,569.94
             280.19,569.94 280.75,571.94 280.75,571.94
             280.75,571.94 281.06,574.00 281.06,574.00
             281.06,574.00 280.88,576.12 280.88,576.12
             280.88,576.12 280.44,577.75 280.44,577.75
             280.44,577.75 278.88,579.19 278.88,579.19
             278.88,579.19 278.19,580.38 278.19,580.38
             278.19,580.38 277.31,581.75 277.31,581.75
             277.31,581.75 276.50,582.62 276.50,582.62
             276.50,582.62 275.81,584.19 275.81,584.19
             275.81,584.19 275.75,586.12 275.75,586.12
             275.75,586.12 275.69,587.50 275.69,587.50
             275.69,587.50 274.50,588.81 274.50,588.81
             274.50,588.81 273.38,589.44 273.38,589.44
             273.38,589.44 271.31,590.75 271.31,590.75
             271.31,590.75 270.69,592.06 270.69,592.06
             270.69,592.06 268.09,594.45 268.09,594.45
             268.09,594.45 263.55,597.73 263.55,597.73
             263.55,597.73 257.73,600.91 257.73,600.91
             257.73,600.91 254.27,602.00 254.27,602.00
             254.27,602.00 251.82,602.82 251.82,602.82
             251.82,602.82 248.64,603.36 248.64,603.36
             248.64,603.36 245.73,604.36 245.73,604.36
             245.73,604.36 244.36,605.91 244.36,605.91
             244.36,605.91 241.27,608.18 241.27,608.18
             241.27,608.18 233.82,614.55 233.82,614.55
             233.82,614.55 233.80,615.78 233.80,615.78
             233.80,615.78 233.18,617.36 233.18,617.36
             233.18,617.36 231.73,618.73 231.73,618.73
             231.73,618.73 231.36,621.00 231.36,621.09
             231.36,621.18 230.64,622.91 230.64,622.91
             230.64,622.91 229.64,626.00 229.64,626.00
             229.64,626.00 229.00,628.73 229.00,628.82
             229.00,628.91 227.09,631.18 227.09,631.18
             227.09,631.18 224.82,633.27 224.82,633.27
             224.82,633.27 222.91,635.64 222.91,635.64
             222.91,635.64 218.91,638.09 218.91,638.09
             218.91,638.09 216.64,638.91 216.64,638.91
             216.64,638.91 212.91,639.82 212.91,639.82
             212.91,639.82 209.64,641.09 209.64,641.09
             209.64,641.09 207.00,641.55 207.00,641.55
             207.00,641.55 204.36,642.00 204.36,642.00
             204.36,642.00 201.36,643.36 201.36,643.36
             201.36,643.36 198.00,644.82 198.00,644.82
             198.00,644.82 196.36,646.27 196.36,646.27
             196.36,646.27 191.36,650.27 191.36,650.27
             191.36,650.27 190.25,651.19 190.25,651.19
             190.25,651.19 188.75,652.22 188.72,652.22
             188.69,652.22 186.94,652.66 186.94,652.66
             186.94,652.66 184.94,652.56 184.94,652.56
             184.94,652.56 183.09,652.41 183.09,652.41
             183.09,652.41 181.38,651.78 181.38,651.78
             181.38,651.78 179.28,651.56 179.28,651.56
             179.28,651.56 177.25,651.75 177.25,651.75
             177.25,651.75 175.12,650.81 175.12,650.81
             175.12,650.81 172.75,650.44 172.75,650.44
             172.75,650.44 169.69,649.88 169.69,649.88
             169.69,649.88 167.94,650.00 167.94,650.00
             167.94,650.00 166.25,650.44 166.25,650.44
             166.25,650.44 164.19,650.75 164.19,650.75
             164.19,650.75 162.19,652.62 162.19,652.62
             162.19,652.62 160.94,654.44 160.94,654.44
             160.94,654.44 160.00,656.69 160.00,656.69
             160.00,656.69 158.94,659.81 158.94,659.81
             158.94,659.81 158.25,662.25 158.25,662.25
             158.25,662.25 156.44,663.00 156.44,663.00
             156.44,663.00 154.94,664.69 154.94,664.69
             154.94,664.69 152.00,666.31 152.00,666.31
             152.00,666.31 149.00,667.19 149.00,667.19
             149.00,667.19 144.62,667.94 144.62,667.94
             144.62,667.94 142.50,669.94 142.50,669.94
             142.50,669.94 128.25,682.62 128.25,682.62
             128.25,682.62 127.00,684.69 127.00,684.69
             127.00,684.69 127.19,686.56 127.19,686.56
             127.19,686.56 128.62,687.69 128.62,687.69
             128.62,687.69 131.69,688.44 131.69,688.44
             131.69,688.44 134.81,688.69 134.81,688.69
             134.81,688.69 136.44,688.75 136.44,688.75
             136.44,688.75 138.06,690.00 138.06,690.00
             138.06,690.00 139.38,692.50 139.38,692.50
             139.38,692.50 141.12,695.19 141.12,695.19
             141.12,695.19 142.25,697.12 142.25,697.12
             142.25,697.12 145.06,698.31 145.06,698.31
             145.06,698.31 147.75,699.69 147.75,699.69
             147.75,699.69 151.56,701.31 151.56,701.31
             151.56,701.31 154.25,702.69 154.25,702.69
             154.25,702.69 157.50,704.56 157.50,704.56
             157.50,704.56 159.56,706.81 159.56,706.81
             159.56,706.81 161.62,708.56 161.62,708.56
             161.62,708.56 163.88,711.31 163.88,711.31
             163.88,711.31 165.19,713.44 165.19,713.44
             165.19,713.44 167.00,715.50 167.00,715.50
             167.00,715.50 169.19,717.25 169.19,717.25
             169.19,717.25 172.88,717.88 172.88,717.88
             172.88,717.88 175.62,719.94 175.62,719.94
             175.62,719.94 177.00,722.44 177.00,722.44
             177.00,722.44 148.27,734.55 148.27,734.55
             148.27,734.55 145.20,735.71 145.20,735.71
             145.20,735.71 131.00,736.07 131.00,736.07
             131.00,736.07 109.25,745.12 109.25,745.06
             109.25,745.00 98.69,754.88 98.69,754.88
             98.69,754.88 87.19,756.25 87.19,756.25
             87.19,756.25 85.88,753.44 85.88,753.38
             85.88,753.31 69.19,723.69 69.19,723.62
             69.19,723.56 75.19,719.06 75.19,719.06
             75.19,719.06 75.94,712.88 75.94,712.88
             75.94,712.88 74.12,711.00 74.12,711.00
             74.12,711.00 72.25,710.75 72.25,710.75
             72.25,710.75 70.06,711.50 70.06,711.50
             70.06,711.50 68.38,712.28 68.38,712.28
             68.38,712.28 66.16,713.66 66.16,713.66
             66.16,713.66 65.34,714.94 65.34,714.94
             65.34,714.94 63.28,715.47 63.28,715.47
             63.28,715.47 62.28,714.16 62.28,714.16
             62.28,714.16 58.00,709.00 58.00,709.00
             58.00,709.00 69.75,699.88 69.75,699.88
             69.75,699.88 70.39,698.35 70.39,698.35
             70.39,698.35 70.43,697.52 70.43,697.52
             70.43,697.52 70.04,696.17 70.04,696.13
             70.04,696.09 69.00,695.39 69.00,695.35
             69.00,695.30 67.96,695.22 67.96,695.17
             67.96,695.13 66.87,693.74 66.87,693.74
             66.87,693.74 66.87,691.78 66.87,691.78
             66.87,691.78 66.83,689.52 66.83,689.48
             66.83,689.43 66.65,687.65 66.65,687.61
             66.65,687.57 65.65,686.30 65.65,686.26
             65.65,686.22 64.26,686.22 64.26,686.22
             64.26,686.22 62.78,687.26 62.78,687.26
             62.78,687.26 61.91,689.30 61.91,689.30
             61.91,689.30 60.71,689.73 60.71,689.73
             60.71,689.73 58.29,689.69 58.29,689.69
             58.29,689.69 56.60,689.78 56.60,689.78
             56.60,689.78 53.64,689.62 53.62,689.62
             53.60,689.62 51.16,689.44 51.16,689.44
             51.16,689.44 48.44,688.67 48.44,688.67
             48.44,688.67 49.07,687.69 49.07,687.69
             49.07,687.69 48.62,685.58 48.62,685.58
             48.62,685.58 48.69,683.96 48.69,683.96
             48.69,683.96 47.91,683.31 47.91,683.31
             47.91,683.31 46.64,682.93 46.64,682.93
             46.64,682.93 45.38,683.60 45.38,683.60
             45.38,683.60 44.38,684.42 44.38,684.42
             44.38,684.42 43.51,685.42 43.51,685.42
             43.51,685.42 43.07,687.00 43.07,687.00
             43.07,687.00 42.38,688.53 42.38,688.53
             42.38,688.53 42.04,690.04 42.04,690.04
             42.04,690.04 41.78,690.93 41.78,690.93
             41.78,690.93 41.38,692.18 41.38,692.18
             41.38,692.18 39.87,692.20 39.87,692.20
             39.87,692.20 30.39,692.04 30.39,692.04
             30.39,692.04 29.91,689.57 29.91,689.57
             29.91,689.57 29.87,687.13 29.87,687.13
             29.87,687.13 27.96,685.65 27.96,685.65
             27.96,685.65 24.57,684.91 24.57,684.91
             24.57,684.91 22.30,683.91 22.30,683.91
             22.30,683.91 18.78,683.65 18.78,683.65
             18.78,683.65 16.83,682.57 16.83,682.57
             16.83,682.57 14.96,681.22 14.96,681.22
             14.96,681.22 15.13,678.87 15.13,678.87
             15.13,678.87 17.74,678.22 17.74,678.22
             17.74,678.22 20.04,677.83 20.04,677.83
             20.04,677.83 23.35,676.83 23.35,676.83
             23.35,676.83 26.74,676.04 26.74,676.04
             26.74,676.04 29.13,675.39 29.13,675.39
             29.13,675.39 31.96,673.22 31.96,673.22
             31.96,673.22 33.91,672.00 33.91,672.00
             33.91,672.00 36.00,671.09 36.00,671.09
             36.00,671.09 37.88,670.09 37.88,670.09
             37.88,670.09 41.41,669.72 41.41,669.72
             41.41,669.72 45.69,670.41 45.69,670.38
             45.69,670.34 46.66,668.47 46.66,668.47
             46.66,668.47 45.94,665.72 45.94,665.69
             45.94,665.66 46.50,663.44 46.50,663.41
             46.50,663.38 48.03,662.28 48.03,662.25
             48.03,662.22 50.75,661.02 50.75,661.02
             50.75,661.02 51.28,660.28 51.28,660.28
             51.28,660.28 53.34,659.44 53.34,659.44
             53.34,659.44 55.75,659.69 55.75,659.69
             55.75,659.69 58.56,661.09 58.56,661.09
             58.56,661.09 59.69,661.81 59.69,661.81
             59.69,661.81 61.72,661.81 61.72,661.78
             61.72,661.75 64.16,660.81 64.16,660.78
             64.16,660.75 66.34,660.53 66.34,660.50
             66.34,660.47 69.31,659.25 69.31,659.25
             69.31,659.25 71.81,658.47 71.81,658.44
             71.81,658.41 73.53,656.31 73.53,656.28
             73.53,656.25 74.50,653.94 74.50,653.94
             74.50,653.94 76.16,651.62 76.19,651.59
             76.22,651.56 76.44,648.00 76.44,648.00
             76.44,648.00 75.69,645.62 75.69,645.62
             75.69,645.62 75.69,641.81 75.69,641.81
             75.69,641.81 75.56,638.94 75.56,638.94
             75.56,638.94 76.44,634.94 76.44,634.94
             76.44,634.94 76.75,631.62 76.75,631.62
             76.75,631.62 76.88,628.00 76.88,628.00
             76.88,628.00 74.94,625.94 74.94,625.94
             74.94,625.94 72.50,624.25 72.50,624.25
             72.50,624.25 71.19,621.50 71.19,621.50
             71.19,621.50 69.38,618.81 69.38,618.81
             69.38,618.81 68.81,615.56 68.81,615.56
             68.81,615.56 69.69,613.88 69.69,613.88
             69.69,613.88 71.50,613.31 71.50,613.31
             71.50,613.31 73.06,613.88 73.06,613.88
             73.06,613.88 74.19,615.94 74.19,615.94
             74.19,615.94 76.12,617.50 76.19,617.50
             76.25,617.50 78.25,619.38 78.25,619.38
             78.25,619.38 80.00,619.94 80.00,619.94
             80.00,619.94 81.62,619.81 81.62,619.81
             81.62,619.81 82.75,618.62 82.75,618.62
             82.75,618.62 82.88,617.31 82.88,617.31
             82.88,617.31 82.00,615.19 82.00,615.19
             82.00,615.19 80.88,613.38 80.88,613.31
             80.88,613.25 78.88,611.47 78.88,611.47
             78.88,611.47 76.97,609.72 76.97,609.72
             76.97,609.72 74.94,608.91 74.94,608.91
             74.94,608.91 72.94,608.09 72.94,608.09
             72.94,608.09 71.25,606.66 71.25,606.66
             71.25,606.66 58.56,597.62 58.56,597.62
             58.56,597.62 56.88,595.94 56.88,595.94
             56.88,595.94 55.31,595.25 55.31,595.25
             55.31,595.25 53.00,596.62 53.00,596.62
             53.00,596.62 50.62,597.06 50.62,597.06
             50.62,597.06 47.69,595.88 47.69,595.88
             47.69,595.88 46.06,593.69 46.06,593.62
             46.06,593.56 44.81,590.94 44.81,590.94
             44.81,590.94 45.00,587.12 45.00,587.06
             45.00,587.00 45.75,584.88 45.75,584.81
             45.75,584.75 48.44,582.94 48.44,582.94
             48.44,582.94 49.62,580.56 49.62,580.56
             49.62,580.56 49.62,577.56 49.62,577.56
             49.62,577.56 48.75,575.31 48.75,575.31
             48.75,575.31 47.06,574.81 47.06,574.81
             47.06,574.81 45.75,574.19 45.75,574.19
             45.75,574.19 45.56,571.31 45.56,571.31
             45.56,571.31 45.12,568.69 45.12,568.69
             45.12,568.69 43.69,568.19 43.69,568.12
             43.69,568.06 41.44,567.56 41.44,567.56
             41.44,567.56 39.12,567.31 39.12,567.31
             39.12,567.31 36.94,566.31 36.94,566.25
             36.94,566.19 35.75,563.50 35.75,563.44
             35.75,563.38 34.44,560.81 34.44,560.81
             34.44,560.81 32.81,559.12 32.81,559.12
             32.81,559.12 30.62,558.25 30.62,558.19
             30.62,558.12 29.38,556.00 29.38,556.00
             29.38,556.00 29.56,554.44 29.56,554.44
             29.56,554.44 37.06,546.69 37.06,546.69
             37.06,546.69 35.44,543.56 35.44,543.56
             35.44,543.56 33.75,541.81 33.75,541.81
             33.75,541.81 33.12,531.00 33.12,531.00
             33.12,531.00 35.56,527.31 35.56,527.25
             35.56,527.19 35.75,522.50 35.75,522.50
             35.75,522.50 37.50,518.69 37.50,518.69
             37.50,518.69 45.12,502.06 45.12,502.00
             45.12,501.94 45.50,496.00 45.50,495.94
             45.50,495.88 69.27,466.00 69.27,466.00
             69.27,466.00 74.12,458.38 74.12,458.38
             74.12,458.38 75.88,455.00 75.88,455.00
             75.88,455.00 76.38,450.12 76.38,450.12
             76.38,450.12 80.38,449.00 80.38,449.00
             80.38,449.00 83.12,449.00 83.12,449.00
             83.12,449.00 87.50,447.75 87.50,447.62
             87.50,447.50 91.75,445.88 91.75,445.75
             91.75,445.62 98.88,443.25 98.88,443.12
             98.88,443.00 104.62,443.00 104.75,443.00
             104.88,443.00 109.62,443.38 109.62,443.25
             109.62,443.12 110.62,440.88 110.62,440.88
             110.62,440.88 112.75,439.62 112.75,439.62
             112.75,439.62 115.62,440.25 115.62,440.25
             115.62,440.25 118.00,437.75 118.00,437.62
             118.00,437.50 120.25,437.88 120.25,437.88
             120.25,437.88 123.38,439.00 123.50,439.12
             123.62,439.25 125.62,441.00 125.62,440.88
             125.62,440.75 129.12,440.12 129.12,440.12
             129.12,440.12 131.75,438.50 131.75,438.50
             131.75,438.50 134.12,436.75 134.12,436.75
             134.12,436.75 138.12,436.62 138.12,436.62
             138.12,436.62 141.50,436.50 141.50,436.50
             141.50,436.50 144.38,434.25 144.38,434.25
             144.38,434.25 147.31,432.62 147.31,432.62
             147.31,432.62 149.50,430.81 149.50,430.81
             149.50,430.81 153.19,429.50 153.19,429.50
             153.19,429.50 156.25,427.38 156.25,427.38
             156.25,427.38 158.44,425.94 158.44,425.94
             158.44,425.94 161.06,424.38 161.19,424.31
             161.31,424.25 163.31,423.00 163.31,423.00
             163.31,423.00 164.88,421.62 164.88,421.56
             164.88,421.50 165.62,419.06 165.62,419.06
             165.62,419.06 165.56,416.88 165.56,416.88
             165.56,416.88 167.44,415.19 167.44,415.19
             167.44,415.19 169.38,414.12 169.38,414.12
             169.38,414.12 171.12,412.94 171.12,412.94
             171.12,412.94 172.62,412.25 172.62,412.25
	     172.62,412.25 174.25,412.00 174.25,412.00" />
</svg>
