<?xml version="1.0" encoding="UTF-8" standalone="no"?>
<!DOCTYPE svg PUBLIC "-//W3C//DTD SVG 20010904//EN"
              "http://www.w3.org/TR/2001/REC-SVG-20010904/DTD/svg10.dtd">

<svg xmlns="http://www.w3.org/2000/svg"
     width="5.32497in" height="5.12478in"
     viewBox="0 0 798 768">
  <path id="Unnamed #2"
        fill="none" stroke="black" stroke-width="1"
        d="M 410.36,464.73
           C 410.36,464.73 410.43,464.52 410.43,464.52
             410.39,464.52 411.65,464.91 411.65,464.91
             411.65,464.91 413.39,465.13 413.39,465.13
             413.39,465.13 415.96,465.04 416.00,465.00
             416.04,464.96 418.00,463.52 418.00,463.52
             418.00,463.52 420.52,461.65 420.52,461.65
             420.52,461.65 423.30,462.00 423.30,462.00
             423.30,462.00 426.65,464.30 426.65,464.30
             426.65,464.30 428.57,465.91 428.57,465.91
             428.57,465.91 430.61,466.04 430.61,466.04
             430.61,466.04 433.43,466.52 433.43,466.52
             433.43,466.52 434.65,464.91 434.65,464.91
             434.65,464.91 438.35,464.96 438.35,464.96
             438.35,464.96 445.04,468.35 445.04,468.39
             445.04,468.43 448.09,470.17 448.09,470.17
             448.09,470.17 449.78,471.43 449.78,471.48
             449.78,471.52 450.78,473.74 450.78,473.78
             450.78,473.83 451.70,477.35 451.70,477.35
             451.70,477.35 452.48,479.83 452.48,479.83
             452.48,479.83 453.43,481.48 453.43,481.52
             453.43,481.57 453.35,484.13 453.35,484.13
             453.35,484.13 450.87,486.78 450.87,486.78
             450.87,486.78 448.83,488.74 448.83,488.78
             448.83,488.83 448.13,495.30 448.13,495.35
             448.13,495.39 440.04,504.43 440.04,504.43
             440.04,504.43 438.38,506.12 438.38,506.12
             438.38,506.12 437.75,507.62 437.75,507.62
             437.75,507.62 437.75,509.12 437.75,509.12
             437.75,509.12 440.62,509.62 440.62,509.62
             440.62,509.62 444.88,511.25 445.00,511.25
             445.12,511.25 447.75,511.75 447.75,511.75
             447.75,511.75 452.38,512.00 452.38,512.00
             452.38,512.00 456.55,511.91 456.55,511.91
             456.55,511.91 460.09,512.45 460.09,512.45
             460.09,512.45 461.55,513.64 461.55,513.64
             461.55,513.64 463.91,517.00 463.91,517.00
             463.91,517.00 466.09,519.73 466.09,519.73
             466.09,519.73 468.27,521.55 468.27,521.55
             468.27,521.55 472.18,520.64 472.18,520.64
             472.18,520.64 475.73,520.55 475.73,520.55
             475.73,520.55 478.36,523.18 478.45,523.45
             478.55,523.73 482.36,527.36 482.45,527.45
             482.55,527.55 485.36,530.64 485.36,530.91
             485.36,531.18 487.36,534.91 487.36,534.91
             487.36,534.91 488.09,538.18 488.09,538.18
             488.09,538.18 489.45,540.36 489.45,540.73
             489.45,541.09 488.82,546.18 488.82,546.18
             488.82,546.18 489.64,553.00 489.73,553.09
             489.82,553.18 488.82,556.00 488.82,556.00
             488.82,556.00 487.36,557.73 487.36,557.91
             487.36,558.09 485.55,561.73 485.45,561.82
             485.36,561.91 484.36,564.82 484.36,565.00
             484.36,565.18 483.91,568.91 483.91,568.91
             483.91,568.91 485.09,571.45 485.09,571.64
             485.09,571.82 489.00,578.00 489.00,578.00
             489.00,578.00 492.00,580.36 492.00,580.36
             492.00,580.36 493.91,584.27 493.91,584.45
             493.91,584.64 494.36,588.00 494.36,588.09
             494.36,588.18 493.91,593.27 493.91,593.36
             493.91,593.45 493.45,595.36 493.45,595.36
             493.45,595.36 492.64,597.55 492.64,597.73
             492.64,597.91 492.09,600.36 492.09,600.64
             492.09,600.91 492.27,605.45 492.27,605.45
             492.27,605.45 493.91,607.91 493.82,607.91
             493.73,607.91 493.55,612.91 493.55,613.27
             493.55,613.64 493.00,619.91 493.00,619.91
             493.00,619.91 493.91,622.82 493.91,622.91
             493.91,623.00 506.27,632.91 506.27,632.91
             506.27,632.91 512.09,633.55 512.09,633.55
             512.09,633.55 515.64,633.82 515.64,633.82
             515.64,633.82 519.00,633.82 519.09,633.82
             519.18,633.82 521.82,634.36 521.82,634.36
             521.82,634.36 521.18,635.64 521.18,635.73
             521.18,635.82 519.00,638.64 519.00,638.64
             519.00,638.64 516.73,639.73 516.73,639.73
             516.73,639.73 516.00,641.27 516.00,641.82
             516.00,642.36 516.18,645.27 516.27,645.55
             516.36,645.82 516.09,648.55 516.09,648.55
             516.09,648.55 515.55,648.91 515.55,648.91
             515.55,648.91 513.64,650.64 513.64,650.73
             513.64,650.82 512.45,652.55 512.45,652.64
             512.45,652.73 508.82,652.36 508.82,652.36
             508.82,652.36 505.00,652.55 505.00,652.55
             505.00,652.55 502.18,651.27 502.18,651.27
             502.18,651.27 499.73,648.55 499.73,648.55
             499.73,648.55 495.09,648.36 495.09,648.36
             495.09,648.36 486.00,640.36 486.00,640.36
             486.00,640.36 484.27,641.55 484.27,641.55
             484.27,641.55 482.36,642.73 482.36,642.73
             482.36,642.73 479.36,642.18 479.36,642.18
             479.36,642.18 478.45,640.27 478.45,640.18
             478.45,640.09 475.91,638.00 475.91,638.00
             475.91,638.00 471.91,638.45 471.91,638.45
             471.91,638.45 469.82,640.09 469.82,640.27
             469.82,640.45 468.55,641.91 468.55,642.27
             468.55,642.64 465.55,642.55 465.55,642.55
             465.55,642.55 464.55,644.18 464.55,644.55
             464.55,644.91 463.73,647.27 463.73,647.36
             463.73,647.45 460.00,648.55 460.00,648.55
             460.00,648.55 456.18,650.18 456.18,650.18
             456.18,650.18 455.09,651.55 455.00,651.82
             454.91,652.09 453.82,655.00 453.82,655.00
             453.82,655.00 452.91,656.91 452.91,657.09
             452.91,657.27 450.91,656.73 450.91,656.73
             450.91,656.73 448.55,655.64 448.55,655.64
             448.55,655.64 446.45,654.09 446.45,654.00
             446.45,653.91 443.18,653.91 443.18,654.00
             443.18,654.09 441.18,652.18 441.18,652.09
             441.18,652.00 438.64,650.00 438.64,650.00
             438.64,650.00 437.09,650.55 437.09,650.82
             437.09,651.09 434.91,652.09 434.91,652.27
             434.91,652.45 432.45,651.91 432.45,651.91
             432.45,651.91 430.09,650.64 430.00,650.64
             429.91,650.64 428.36,650.91 428.36,651.09
             428.36,651.27 425.64,653.91 425.64,654.00
             425.64,654.09 424.45,655.36 424.45,655.36
             424.45,655.36 421.64,655.64 421.64,655.64
	     421.64,655.64 418.55,656.00 418.55,656.00 M410.36,464.73
           C 410.36,464.73 410.36,464.73 410.36,464.73
             410.36,464.73 410.55,470.36 410.55,470.36
             410.55,470.36 410.55,470.36 410.55,470.36
             410.55,470.36 410.55,470.36 410.55,470.36
             410.55,470.36 414.55,474.55 414.55,474.55
             414.55,474.55 414.73,474.55 414.73,474.55
             414.73,474.55 414.91,474.55 414.91,474.55
             414.91,474.55 415.27,479.82 415.27,479.82
             415.27,479.82 415.27,480.18 415.27,480.18
             415.27,480.18 415.27,480.55 415.27,480.55
             415.27,480.55 416.55,490.55 416.55,490.55
             416.55,490.55 416.55,490.55 416.55,490.55
             416.55,490.55 416.55,490.55 416.55,490.55
             416.55,490.55 417.27,502.91 417.27,502.91
             417.27,502.91 417.27,502.91 417.27,502.91
             417.27,502.91 417.27,502.91 417.27,502.91
             417.27,502.91 417.27,511.45 417.27,511.45
             417.27,511.45 417.27,511.64 417.27,511.64
             417.27,511.64 417.27,511.82 417.27,511.82
             417.27,511.82 417.64,521.82 417.64,521.82
             417.64,521.82 417.64,521.82 417.64,521.82
             417.64,521.82 417.64,521.82 417.64,521.82
             417.64,521.82 417.09,538.73 417.09,538.73
             417.09,538.73 417.09,539.09 417.09,539.09
             417.09,539.09 417.09,539.45 417.09,539.45
             417.09,539.45 418.55,656.00 418.55,656.00
             418.55,656.00 418.55,656.00 418.55,656.00" />
</svg>
