<?xml version="1.0" encoding="UTF-8" standalone="no"?>
<!DOCTYPE svg PUBLIC "-//W3C//DTD SVG 20010904//EN"
              "http://www.w3.org/TR/2001/REC-SVG-20010904/DTD/svg10.dtd">

<svg xmlns="http://www.w3.org/2000/svg"
     width="5.32497in" height="5.12478in"
     viewBox="0 0 798 768">
  <path id="Unnamed #4"
        fill="none" stroke="black" stroke-width="1"
        d="M 513.38,652.88
           C 513.38,652.88 516.00,654.75 516.00,654.75
             516.00,654.75 521.00,654.75 521.00,654.75
             521.00,654.75 527.50,657.00 527.75,657.00
             528.00,657.00 530.50,659.25 530.50,659.25
             530.50,659.25 532.50,661.25 532.50,661.25
             532.50,661.25 533.12,664.50 533.00,664.62
             532.88,664.75 532.62,667.38 532.62,667.38
             532.62,667.38 531.25,670.88 531.00,670.88
             530.75,670.88 531.88,673.38 531.88,673.38
             531.88,673.38 532.00,678.75 532.00,678.75
             532.00,678.75 530.88,681.50 530.75,681.75
             530.62,682.00 530.25,686.25 530.25,686.50
             530.25,686.75 531.25,688.75 531.25,688.75
             531.25,688.75 534.38,688.12 535.25,687.38
             536.12,686.62 538.62,685.75 538.75,685.62
             538.88,685.50 541.25,682.62 541.25,682.12
             541.25,681.62 542.38,679.38 542.38,679.00
             542.38,678.62 545.25,674.38 545.38,674.25
             545.50,674.12 547.62,669.88 547.62,669.00
             547.62,668.12 549.00,665.25 549.12,664.75
             549.25,664.25 550.88,660.62 550.88,660.12
             550.88,659.62 551.88,657.38 551.88,657.38
             551.88,657.38 551.12,653.88 550.88,653.62
             550.62,653.38 549.25,652.88 549.25,652.88
             549.25,652.88 546.62,656.00 546.62,656.00
             546.62,656.00 545.12,658.75 545.00,658.75
             544.88,658.75 544.88,662.12 544.88,662.12
             544.88,662.12 543.62,663.62 543.62,663.62
             543.62,663.62 541.25,665.62 541.25,665.62
             541.25,665.62 539.50,664.88 539.38,664.75
             539.25,664.62 539.38,661.88 539.38,661.62
             539.38,661.38 540.50,657.62 540.50,657.25
             540.50,656.88 541.25,654.88 541.62,654.38
             542.00,653.88 542.50,652.25 542.62,652.00
             542.75,651.75 544.12,649.38 544.12,649.25
             544.12,649.12 544.00,647.25 543.88,646.88
             543.75,646.50 543.75,644.12 543.75,643.88
             543.75,643.62 545.00,643.12 545.00,643.12
             545.00,643.12 547.12,642.88 547.12,642.88
             547.12,642.88 548.50,643.25 548.50,643.25
             548.50,643.25 549.50,647.50 549.75,647.75
             550.00,648.00 552.50,647.00 552.50,647.00
             552.50,647.00 554.25,645.25 554.25,645.25
             554.25,645.25 554.25,641.75 554.25,641.25
             554.25,640.75 555.00,638.25 555.00,637.50
             555.00,636.75 556.75,632.25 557.00,631.25
             557.25,630.25 558.75,627.25 559.00,626.50
             559.25,625.75 561.50,620.50 561.50,620.50
             561.50,620.50 564.00,615.00 564.00,615.00
             564.00,615.00 566.50,609.50 566.50,609.50
             566.50,609.50 569.50,601.75 569.50,601.75
             569.50,601.75 572.75,596.00 573.00,595.75
             573.25,595.50 574.50,592.00 574.75,591.00
             575.00,590.00 575.50,587.75 575.75,587.50
             576.00,587.25 576.75,585.75 576.75,585.50
             576.75,585.25 579.50,580.50 579.50,580.50
             579.50,580.50 604.73,543.27 604.73,543.27
             604.73,543.27 608.27,540.45 608.27,540.45
             608.27,540.45 632.91,509.27 633.18,509.00
             633.45,508.73 635.00,506.27 635.00,505.91
             635.00,505.55 636.82,503.27 636.82,502.73
             636.82,502.18 639.00,501.36 639.00,501.36
             639.00,501.36 641.18,499.55 641.18,499.55
             641.18,499.55 664.45,471.82 664.45,471.82
             664.45,471.82 667.91,472.18 667.91,472.18
             667.91,472.18 670.82,474.27 670.82,474.36
             670.82,474.45 672.64,474.36 672.64,474.36
             672.64,474.36 676.18,474.18 677.18,474.09
             678.18,474.00 679.00,473.64 679.18,473.18
             679.36,472.73 680.73,471.09 680.64,470.82
             680.55,470.55 680.09,469.27 680.00,469.18
             679.91,469.09 679.64,467.55 679.64,467.55
             679.64,467.55 680.09,464.45 680.09,464.45
             680.09,464.45 719.36,412.91 719.55,412.82
             719.73,412.73 722.18,411.18 722.18,411.18
             722.18,411.18 725.00,411.00 725.00,411.00
             725.00,411.00 727.09,413.27 727.18,413.27
             727.27,413.27 729.55,412.45 729.64,412.27
             729.73,412.09 730.18,410.18 730.18,409.64
             730.18,409.09 729.73,407.36 729.73,407.36
             729.73,407.36 729.09,405.55 729.09,405.55
             729.09,405.55 730.09,402.45 730.18,402.45
             730.27,402.45 746.09,390.73 746.09,390.55
             746.09,390.36 751.27,389.45 751.45,389.45
             751.64,389.45 758.18,389.55 758.18,389.55
             758.18,389.55 771.00,387.36 771.00,387.00
             771.00,386.64 772.27,384.45 772.36,384.27
             772.45,384.09 773.36,382.09 773.36,382.09
             773.36,382.09 784.27,374.91 784.45,374.27
             784.64,373.64 785.27,371.91 785.18,371.27
             785.09,370.64 785.45,369.27 785.45,369.09
             785.45,368.91 783.64,367.45 783.64,367.45
             783.64,367.45 780.64,369.27 780.64,369.27
             780.64,369.27 778.73,370.73 778.64,370.64
             778.55,370.55 776.45,370.64 776.36,370.55
             776.27,370.45 775.36,369.36 775.27,369.00
             775.18,368.64 774.82,366.36 774.73,365.73
             774.64,365.09 773.82,362.18 773.73,361.55
             773.64,360.91 772.00,358.73 771.91,358.18
             771.82,357.64 770.55,357.45 770.55,357.45
             770.55,357.45 767.18,357.91 766.64,357.73
             766.09,357.55 762.18,358.73 762.00,358.73
             761.82,358.73 756.91,360.55 756.82,360.55
             756.73,360.55 754.64,364.00 754.64,364.00
             754.64,364.00 754.36,367.55 754.36,367.55
             754.36,367.55 752.55,369.27 752.55,369.27
             752.55,369.27 749.27,369.00 749.00,369.00
             748.73,369.00 746.00,371.27 745.91,371.27
             745.82,371.27 743.27,373.73 743.18,373.82
             743.09,373.91 741.45,375.82 741.36,375.91
             741.27,376.00 741.36,378.27 741.36,378.27
             741.36,378.27 740.45,379.18 740.45,379.18
             740.45,379.18 738.45,378.64 738.45,378.64
             738.45,378.64 735.64,378.36 735.64,378.36
             735.64,378.36 727.27,383.55 727.27,383.55
             727.27,383.55 723.36,383.82 723.27,383.73
             723.18,383.64 720.55,384.00 720.55,384.00
             720.55,384.00 719.09,382.27 718.82,381.45
             718.55,380.64 717.55,379.55 717.45,379.55
             717.36,379.55 716.64,379.36 716.55,379.27
             716.45,379.18 714.45,377.91 714.18,377.27
             713.91,376.64 712.73,375.18 712.73,374.91
             712.73,374.64 713.18,372.73 713.18,372.55
             713.18,372.36 713.91,372.27 713.91,372.27
             713.91,372.27 715.64,371.82 715.73,371.55
             715.82,371.27 716.64,369.64 716.64,369.45
             716.64,369.27 716.91,367.82 716.91,367.64
             716.91,367.45 716.64,365.91 716.45,365.64
             716.27,365.36 716.00,364.00 716.09,363.82
             716.18,363.64 717.64,363.00 717.64,362.73
             717.64,362.45 720.09,361.82 720.09,361.73
             720.09,361.64 721.18,360.27 721.18,360.09
             721.18,359.91 721.09,358.45 721.09,358.45
             721.09,358.45 719.64,357.64 719.64,357.64
             719.64,357.64 698.00,350.67 698.00,350.67
             698.00,350.67 700.43,259.87 700.43,259.87
             700.43,259.87 695.00,262.38 695.00,262.38
             694.88,262.38 690.50,264.00 690.50,264.00
             690.50,264.00 687.00,268.88 687.00,269.00
             687.00,269.12 685.12,275.12 684.88,275.25
             684.62,275.38 672.12,280.62 672.00,280.75
             671.88,280.88 670.50,288.12 670.50,288.12
             670.50,288.12 668.75,294.50 668.75,294.50
             668.75,294.50 666.88,297.88 666.88,297.88
             666.88,297.88 663.38,300.75 663.25,300.75
             663.12,300.75 656.75,305.12 656.75,305.25
             656.75,305.38 651.50,310.12 651.38,310.12
             651.25,310.12 646.50,315.25 646.50,315.25
             646.50,315.25 643.38,318.00 643.25,318.12
             643.12,318.25 638.62,317.12 638.62,317.12
             638.62,317.12 634.12,317.62 634.12,317.62
             634.12,317.62 628.25,319.38 628.25,319.38
             628.25,319.38 619.88,322.62 619.88,322.75
             619.88,322.88 614.88,326.62 614.88,326.62
             614.88,326.62 611.62,329.12 611.62,328.88
             611.62,328.62 608.75,325.25 608.75,325.12
             608.75,325.00 603.00,322.12 603.00,322.12
             603.00,322.12 597.88,320.50 597.75,320.38
             597.62,320.25 594.62,320.50 594.62,320.50
             594.62,320.50 590.00,323.50 589.88,323.50
             589.75,323.50 586.12,324.50 586.12,324.50
             581.45,328.45 583.36,326.18 583.36,326.18
             579.82,331.82 581.45,328.45 581.45,328.45
             577.36,335.45 579.64,332.00 579.73,331.91
             576.91,338.45 577.36,335.45 577.36,335.45
             575.64,341.55 576.91,338.45 576.91,338.45
             574.45,345.64 575.64,341.73 575.64,341.64
             573.55,350.27 574.27,346.00 574.36,345.82
             572.09,353.64 573.55,350.45 573.55,350.36
             569.00,355.45 572.09,353.64 572.09,353.64
             568.64,356.73 568.44,358.31 568.44,358.31
             568.44,358.31 567.62,361.75 567.62,362.00
             567.62,362.25 567.75,364.88 567.75,365.00
             567.75,365.12 567.56,367.69 567.44,368.12
             567.31,368.56 566.81,371.19 566.81,371.19
             566.81,371.19 566.44,373.88 566.44,373.94
             566.44,374.00 567.75,375.69 567.75,375.75
             567.75,375.81 569.06,377.38 569.06,377.38
             569.06,377.38 569.81,379.19 569.81,379.19
             569.81,379.19 570.06,381.19 570.06,381.19
             570.06,381.19 570.06,382.88 570.06,382.88
             570.06,382.88 571.38,385.06 571.38,385.06
             571.38,385.06 573.64,387.27 573.64,387.27
             573.64,387.27 576.18,390.55 576.18,390.55
             576.18,390.55 580.55,392.18 580.55,392.18
             580.55,392.18 586.00,398.55 586.00,398.73
             586.00,398.91 587.27,408.55 587.27,408.55
             587.27,408.55 590.00,410.91 590.00,411.09
             590.00,411.27 593.27,414.91 593.27,414.91
             593.27,414.91 598.00,422.00 598.00,422.18
             598.00,422.36 600.55,426.73 600.55,426.73
             600.55,426.73 606.18,432.18 606.18,432.36
             606.18,432.55 609.27,436.36 609.27,436.36
             609.27,436.36 607.45,441.09 607.45,441.09
             607.45,441.09 606.55,444.00 606.55,444.00
             606.55,444.00 605.82,448.00 605.82,448.00
             605.82,448.00 604.73,451.09 604.73,451.09
             604.73,451.09 604.18,454.36 604.18,454.36
             604.18,454.36 604.36,458.55 604.36,458.55
             604.36,458.55 610.55,468.73 610.36,468.73
             610.18,468.73 547.64,469.09 547.64,469.27
             547.64,469.45 485.75,498.88 485.75,498.88
             485.75,498.88 479.50,502.00 479.50,502.00
             479.50,502.00 469.73,506.09 469.73,506.09
             469.73,506.09 469.91,509.36 469.91,509.36
             469.91,509.36 469.55,513.18 469.55,513.18
             469.55,513.18 471.27,515.82 471.27,515.82
             471.27,515.82 473.09,518.36 473.09,518.36
             473.09,518.36 474.18,519.91 474.18,519.91 M512.45,652.55
	     
           C 512.45,652.55 513.64,650.82 513.64,650.73
             513.64,650.64 515.55,648.91 515.55,648.91
             515.55,648.91 516.09,648.55 516.09,648.55
             516.09,648.55 516.36,645.82 516.27,645.55
             516.18,645.27 516.00,642.36 516.00,641.82
             516.00,641.27 516.73,639.73 516.73,639.73
             516.73,639.73 519.00,638.64 519.00,638.64
             519.00,638.64 521.18,635.82 521.18,635.73
             521.18,635.64 521.82,634.36 521.82,634.36
             521.82,634.36 519.18,633.82 519.09,633.82
             519.00,633.82 515.64,633.82 515.64,633.82
             515.64,633.82 512.09,633.55 512.09,633.55
             512.09,633.55 506.27,632.91 506.27,632.91
             506.27,632.91 493.91,623.00 493.91,622.91
             493.91,622.82 493.00,619.91 493.00,619.91
             493.00,619.91 493.55,613.64 493.55,613.27
             493.55,612.91 493.73,607.91 493.82,607.91
             493.91,607.91 492.27,605.45 492.27,605.45
             492.27,605.45 492.09,600.91 492.09,600.64
             492.09,600.36 492.64,597.91 492.64,597.73
             492.64,597.55 493.45,595.36 493.45,595.36
             493.45,595.36 493.91,593.45 493.91,593.36
             493.91,593.27 494.36,588.18 494.36,588.09
             494.36,588.00 493.91,584.64 493.91,584.45
             493.91,584.27 492.00,580.36 492.00,580.36
             492.00,580.36 489.00,578.00 489.00,578.00
             489.00,578.00 485.09,571.82 485.09,571.64
             485.09,571.45 483.91,568.91 483.91,568.91
             483.91,568.91 484.36,565.18 484.36,565.00
             484.36,564.82 485.36,561.91 485.45,561.82
             485.55,561.73 487.36,558.09 487.36,557.91
             487.36,557.73 488.82,556.00 488.82,556.00
             488.82,556.00 489.82,553.18 489.73,553.09
             489.64,553.00 488.82,546.18 488.82,546.18
             488.82,546.18 489.45,541.09 489.45,540.73
             489.45,540.36 488.09,538.18 488.09,538.18
             488.09,538.18 487.36,534.91 487.36,534.91
             487.36,534.91 485.36,531.18 485.36,530.91
             485.36,530.64 482.55,527.55 482.45,527.45
             482.36,527.36 478.55,523.73 478.45,523.45
             478.36,523.18 475.73,520.55 475.73,520.55" />
</svg>
