<?xml version="1.0" encoding="UTF-8" standalone="no"?>
<!DOCTYPE svg PUBLIC "-//W3C//DTD SVG 20010904//EN"
              "http://www.w3.org/TR/2001/REC-SVG-20010904/DTD/svg10.dtd">

<svg xmlns="http://www.w3.org/2000/svg"
     width="5.32497in" height="5.12478in"
     viewBox="0 0 798 768">
  <path id="Unnamed"
        fill="none" stroke="black" stroke-width="1"
        d="M 175.25,409.62
           C 175.25,409.62 194.12,381.00 194.12,381.00
             194.12,381.00 194.56,377.62 194.50,377.62
             194.44,377.62 195.06,375.50 195.06,375.50
             195.06,375.50 196.50,373.31 196.50,373.31
             196.50,373.31 197.50,371.75 197.50,371.75
             197.50,371.75 199.81,370.38 199.81,370.38
             199.81,370.38 201.00,369.44 201.00,369.44
             201.00,369.44 202.44,369.88 202.44,369.88
             202.44,369.88 203.12,371.69 203.12,371.69
             203.12,371.69 204.94,374.31 204.94,374.31
             204.94,374.31 206.44,377.62 206.44,377.62
             206.44,377.62 207.88,380.88 207.88,380.94
             207.88,381.00 209.81,384.81 209.81,384.88
             209.81,384.94 210.94,387.62 210.94,387.62
             210.94,387.62 212.06,390.25 212.06,390.25
             212.06,390.25 214.12,393.50 214.12,393.50
             214.12,393.50 216.75,395.69 216.75,395.75
             216.75,395.81 219.31,397.38 219.31,397.38
             219.31,397.38 223.16,399.09 223.16,399.12
             223.16,399.16 225.25,399.81 225.25,399.81
             225.25,399.81 227.22,400.47 227.22,400.50
             227.22,400.53 227.81,402.56 227.81,402.59
             227.81,402.62 227.31,404.34 227.31,404.38
             227.31,404.41 225.94,404.72 225.94,404.72
             225.94,404.72 224.25,406.25 224.25,406.25
             224.25,406.25 224.03,408.00 224.03,408.00
             224.03,408.00 224.31,410.56 224.31,410.59
             224.31,410.62 227.00,411.12 227.00,411.12
             227.00,411.12 229.16,411.25 229.16,411.28
             229.16,411.31 230.72,410.69 230.75,410.66
             230.78,410.62 232.56,409.25 232.56,409.25
             232.56,409.25 233.56,407.69 233.56,407.69
             233.56,407.69 236.16,407.91 236.16,407.91
             236.16,407.91 237.69,408.34 237.69,408.38
             237.69,408.41 238.25,410.31 238.25,410.31
             238.25,410.31 238.12,412.59 238.12,412.59
             238.12,412.59 238.69,414.75 238.69,414.78
             238.69,414.81 240.66,415.44 240.66,415.44
             240.66,415.44 242.09,416.06 242.09,416.06
             242.09,416.06 243.44,417.09 243.44,417.09
             243.44,417.09 244.75,419.19 244.75,419.19
             244.75,419.19 245.56,421.31 245.56,421.31
             245.56,421.31 247.06,423.44 247.06,423.44
             247.06,423.44 249.00,425.19 249.00,425.19
             249.00,425.19 251.69,426.62 251.69,426.62
             251.69,426.62 254.94,427.31 254.94,427.31
             254.94,427.31 256.31,429.25 256.31,429.25
             256.31,429.25 255.00,430.75 255.00,430.75
             255.00,430.75 252.87,431.17 252.87,431.17
             252.87,431.17 249.22,430.91 249.22,430.91
             249.22,430.91 246.48,431.00 246.48,431.00
             246.48,431.00 244.91,432.04 244.91,432.04
             244.91,432.04 244.57,434.30 244.57,434.30
             244.57,434.30 246.26,436.13 246.26,436.13
             246.26,436.13 247.30,438.17 247.30,438.17
             247.30,438.17 247.00,439.39 246.96,439.39
             246.91,439.39 244.75,440.12 244.75,440.12
             244.75,440.12 242.62,443.00 242.62,443.00
             242.62,443.00 242.50,446.88 242.50,446.88
             242.50,446.88 244.88,449.12 244.88,449.12
             244.88,449.12 245.88,452.50 245.88,452.50
             245.88,452.50 244.00,454.88 244.00,454.88
             244.00,454.88 241.12,456.00 241.12,456.00
             241.12,456.00 235.12,456.50 235.12,456.50
             235.12,456.50 228.62,456.75 228.62,456.75
             228.62,456.75 223.75,459.12 223.75,459.12
             223.75,459.12 220.55,461.36 220.55,461.36
             220.55,461.36 217.18,463.82 217.09,463.82
             217.00,463.82 214.91,464.00 214.82,464.00
             214.73,464.00 211.64,464.27 211.64,464.27
             211.64,464.27 209.73,465.45 209.45,465.55
             209.18,465.64 205.64,467.00 205.64,467.00
             205.64,467.00 203.00,468.55 203.00,468.55
             203.00,468.55 199.45,469.45 199.45,469.45
             199.45,469.45 196.09,471.09 196.09,471.18
             196.09,471.27 193.45,472.64 193.45,472.64
             193.45,472.64 191.00,475.09 191.00,475.09
             191.00,475.09 190.73,477.64 190.73,477.64
             190.73,477.64 192.18,480.18 192.18,480.18
             192.18,480.18 188.50,481.19 188.50,481.19
             188.50,481.19 187.25,479.81 187.25,479.81
             187.25,479.81 186.38,479.12 186.38,479.12
             186.38,479.12 186.25,477.94 186.25,477.94
             186.25,477.94 186.06,476.50 186.06,476.50
             186.06,476.50 186.31,475.19 186.31,475.19
             186.31,475.19 186.38,473.56 186.38,473.56
             186.38,473.56 187.00,472.94 187.00,472.94
             187.00,472.94 186.81,471.06 186.81,471.06
             186.81,471.06 186.56,469.69 186.56,469.69
             186.56,469.69 185.75,469.19 185.75,469.19
             185.75,469.19 184.75,468.94 184.75,468.94
             184.75,468.94 182.75,468.69 182.69,468.62
             182.62,468.56 181.44,468.25 181.44,468.25
             181.44,468.25 179.94,467.81 179.94,467.81
             179.94,467.81 179.25,467.56 179.25,467.56
             179.25,467.56 177.62,466.69 177.62,466.69
             177.62,466.69 176.56,466.12 176.56,466.12
             176.56,466.12 175.94,465.75 175.94,465.75
             175.94,465.75 174.50,464.56 174.50,464.56
             174.50,464.56 173.12,463.38 173.12,463.31
             173.12,463.25 171.69,463.38 171.69,463.38
             171.69,463.38 170.25,464.94 170.25,464.94
             170.25,464.94 168.94,466.00 168.94,466.00
             168.94,466.00 167.12,466.06 167.06,466.06
             167.00,466.06 166.12,465.62 166.12,465.62
             166.12,465.62 164.88,465.06 164.88,465.06
             164.88,465.06 164.00,464.56 164.00,464.56
             164.00,464.56 163.00,464.50 163.00,464.50
             163.00,464.50 160.81,464.62 160.81,464.62
             160.81,464.62 159.12,463.69 159.12,463.69
             159.12,463.69 158.94,461.75 158.94,461.69
             158.94,461.62 158.44,460.25 158.44,460.25
             158.44,460.25 158.00,458.50 158.00,458.50
             158.00,458.50 158.19,456.38 158.19,456.38
             158.19,456.38 159.94,454.31 159.94,454.31
             159.94,454.31 162.12,454.62 162.12,454.62
             162.12,454.62 163.81,455.19 163.81,455.19
             163.81,455.19 165.25,454.75 165.25,454.75
             165.25,454.75 168.75,453.50 168.75,453.50
             168.75,453.50 174.50,452.50 174.50,452.50
             174.50,452.50 178.25,450.25 178.25,450.25
             178.25,450.25 181.50,446.00 181.50,446.00
             181.50,446.00 183.50,441.75 183.50,441.75
             183.50,441.75 187.25,438.50 187.25,438.50
             187.25,438.50 185.50,433.25 185.50,433.25
             185.50,433.25 183.25,428.00 183.25,428.00
             183.25,428.00 184.50,424.00 184.50,424.00
             184.50,424.00 180.25,418.00 180.25,418.00
             180.25,418.00 178.50,414.50 178.50,414.50
             178.50,414.50 174.25,412.00 174.25,412.00
	     174.25,412.00 175.25,409.62 175.25,409.62" />
</svg>
