<?xml version="1.0" encoding="UTF-8" standalone="no"?>
<!DOCTYPE svg PUBLIC "-//W3C//DTD SVG 20010904//EN"
              "http://www.w3.org/TR/2001/REC-SVG-20010904/DTD/svg10.dtd">

<svg xmlns="http://www.w3.org/2000/svg"
     width="5.32497in" height="5.12478in"
     viewBox="0 0 798 768">
  <path id="Unnamed"
        fill="none" stroke="black" stroke-width="1"
        d="M 209.55,506.18
           C 209.55,506.27 209.67,503.67 209.67,503.67
             209.67,503.67 214.00,502.67 214.00,502.67
             214.00,502.67 219.67,500.67 219.67,500.67
             219.67,500.67 224.67,495.67 224.67,496.00
             224.67,496.33 230.00,491.33 230.00,491.67
             230.00,492.00 236.00,487.00 236.00,487.00
             236.00,487.00 241.67,482.33 241.67,482.67
             241.67,483.00 247.33,478.33 247.33,478.33
             247.33,478.33 250.67,477.00 250.67,477.00
             250.67,477.00 257.67,473.00 257.67,473.33
             257.67,473.67 262.67,469.33 262.67,469.67
             262.67,470.00 264.33,465.33 264.33,465.00
             264.33,464.67 272.00,465.33 272.00,465.67
             272.00,466.00 277.33,465.00 277.33,465.00
             277.33,465.00 284.00,464.67 284.00,465.00
             284.00,465.33 285.67,461.67 285.67,461.67
             285.67,461.67 289.00,457.67 289.00,457.67
             289.00,457.67 292.67,454.00 292.67,454.00
             292.67,454.00 289.67,448.67 289.67,448.67
             289.67,448.67 292.38,444.62 292.38,444.75
             292.38,444.88 296.00,440.75 296.00,441.00
             296.00,441.25 296.50,436.75 296.50,436.75
             296.50,436.75 300.75,433.50 300.75,433.50
             300.75,433.50 306.25,427.25 306.25,427.25
             306.25,427.25 310.25,421.38 310.25,421.38
             310.25,421.38 310.88,415.00 310.88,415.12
             310.88,415.25 309.12,411.12 308.88,411.12
             308.62,411.12 304.75,408.00 304.62,407.88
             304.50,407.75 301.88,400.62 301.88,400.62
             301.88,400.62 301.38,393.75 301.38,393.62
             301.38,393.50 301.50,391.25 301.50,391.12
             301.50,391.00 303.75,390.50 303.62,390.50
             303.50,390.50 303.88,388.38 303.88,388.50
             303.88,388.62 304.50,385.12 304.38,385.12
             304.25,385.12 307.00,384.12 307.00,384.25
             307.00,384.38 310.00,381.62 310.00,381.75
             310.00,381.88 312.25,379.38 312.25,379.12
             312.25,378.88 312.75,376.00 312.62,376.12
             312.50,376.25 313.88,373.88 313.88,373.88
             313.88,373.88 318.62,372.25 318.75,372.12
             318.88,372.00 328.38,366.88 328.38,366.88
             328.38,366.88 334.50,360.88 334.50,360.88
             334.50,360.88 342.25,361.25 342.25,361.25
             342.25,361.25 346.62,363.12 346.62,363.25
             346.62,363.38 391.00,352.50 391.00,352.62
             391.00,352.75 400.75,348.75 400.75,348.75
             400.75,348.75 403.62,347.25 403.62,347.25
             403.62,347.25 405.62,349.00 405.62,349.00
             405.62,349.00 408.62,347.38 408.75,347.38
             408.88,347.38 414.38,342.00 414.38,342.00
             414.38,342.00 417.38,337.00 417.38,337.00
             417.38,337.00 417.88,332.12 417.88,332.12
             417.88,332.12 422.25,329.00 422.25,329.00
             422.25,329.00 427.62,326.75 427.62,326.88
             427.62,327.00 433.75,325.12 433.75,325.12
             433.75,325.12 442.75,324.00 442.75,324.00
             442.75,324.00 454.75,317.50 454.75,317.50
             454.75,317.50 459.62,315.12 459.62,315.12
             459.62,315.12 466.00,313.62 466.00,313.75
             466.00,313.88 490.75,294.50 490.75,294.50
             490.75,294.50 492.12,290.50 492.12,290.50
             492.12,290.50 497.75,289.62 497.75,289.62
             497.75,289.62 502.62,287.25 502.75,287.25
             502.88,287.25 506.62,284.38 506.62,284.38
             506.62,284.38 511.12,279.25 511.12,279.25
             511.12,279.25 511.12,274.50 511.12,274.50
             511.12,274.50 516.88,274.00 516.88,274.12
             516.88,274.25 521.38,270.62 521.38,270.62
             521.38,270.62 525.25,265.75 525.25,265.75
             525.25,265.75 528.38,259.88 528.38,259.88
             528.38,259.88 531.00,255.50 531.00,255.50
             531.00,255.50 535.25,252.75 535.25,252.75
             535.25,252.75 540.75,249.50 540.75,249.50
             540.75,249.50 542.12,243.62 542.12,243.62
             542.12,243.62 544.00,239.50 544.00,239.50
             544.00,239.50 544.38,235.00 544.38,235.12
             544.38,235.25 545.88,231.38 545.88,231.38
             545.88,231.38 543.00,225.75 543.00,225.75
             543.00,225.75 542.50,221.00 542.50,221.00
             542.50,221.00 547.12,217.00 547.12,216.88
             547.12,216.75 548.88,213.62 548.88,213.62
             548.88,213.62 545.00,212.75 544.88,212.62
             544.75,212.50 545.38,210.38 545.38,210.38
             545.38,210.38 549.88,205.00 549.88,205.00
             549.88,205.00 548.38,202.00 548.25,202.00
             548.12,202.00 545.12,200.00 545.12,200.12
             545.12,200.25 541.88,197.38 541.50,197.00
             541.12,196.62 538.75,194.00 538.75,193.88
             538.75,193.75 537.38,191.25 537.38,191.25
             537.38,191.25 539.75,189.38 539.75,189.38
             539.75,189.38 544.00,192.50 544.00,192.50
             544.00,192.50 548.25,193.00 548.25,193.00
             548.25,193.00 550.62,191.38 550.62,191.38
             550.62,191.38 538.75,182.62 538.75,182.62
             538.75,182.62 539.75,179.75 539.62,179.75
             539.50,179.75 540.25,175.75 540.00,175.62
             539.75,175.50 536.88,171.62 536.62,171.25
             536.38,170.88 536.38,168.62 536.25,168.50
             536.12,168.38 532.62,168.00 532.62,168.00
             532.62,168.00 527.00,167.38 526.88,167.25
             526.75,167.12 524.00,166.75 523.75,166.25
             523.50,165.75 522.50,162.38 522.50,162.25
             522.50,162.12 522.00,159.00 521.75,158.75
             521.50,158.50 520.00,157.12 519.88,157.12
             519.75,157.12 518.38,154.25 518.38,154.12
             518.38,154.00 517.38,151.12 517.38,150.62
             517.38,150.12 517.62,146.12 517.62,146.12
             517.62,146.12 518.50,143.38 518.50,143.38
             518.50,143.38 520.62,141.88 520.62,141.88
             520.62,141.88 525.00,141.88 525.00,141.88
             525.00,141.88 530.12,135.88 530.12,135.88
             530.12,135.88 537.12,129.12 537.12,129.12
             537.12,129.12 547.25,116.88 547.25,116.88
             547.25,116.88 558.50,109.12 558.56,109.12
             558.62,109.12 565.25,110.19 565.25,110.19
             565.25,110.19 571.00,111.25 571.06,111.25
             571.12,111.25 575.88,110.06 575.88,110.06
             575.88,110.06 580.88,109.88 580.88,109.88
             580.88,109.88 610.94,95.56 610.94,95.56
             610.94,95.56 616.38,94.25 616.38,94.25
             616.38,94.25 621.00,95.06 621.00,95.06
             621.00,95.06 622.38,97.38 622.38,97.38
             622.38,97.38 623.00,104.88 623.00,104.69
             623.00,104.50 620.88,110.69 620.88,110.69
             620.88,110.69 623.31,113.69 623.31,113.75
             623.31,113.81 622.69,117.44 622.69,117.19
             622.69,116.94 619.38,121.56 619.38,121.56
             619.38,121.56 619.44,126.81 619.44,126.94
             619.44,127.06 619.56,132.19 619.56,132.19
             619.56,132.19 614.50,134.81 614.50,134.81
             614.50,134.81 610.44,138.38 610.38,138.38
             610.31,138.38 605.75,140.62 605.75,140.62
             605.75,140.62 601.25,141.44 601.25,141.38
             601.25,141.31 586.38,152.56 586.38,152.62
             586.38,152.69 586.00,160.19 586.00,160.25
             586.00,160.31 576.88,168.25 576.88,168.25
             576.88,168.25 574.31,170.25 574.31,170.25
             574.31,170.25 576.44,172.50 576.44,172.50
             576.44,172.50 581.19,174.88 581.19,174.81
             581.19,174.75 585.12,174.06 585.19,174.06
             585.25,174.06 588.38,173.31 588.31,173.38
             588.25,173.44 592.00,176.56 592.00,176.50
             592.00,176.44 598.00,177.75 598.00,177.75
             598.00,177.75 605.12,177.69 605.12,177.69
             605.12,177.69 608.25,175.31 608.19,175.19
             608.12,175.06 609.69,172.62 609.69,172.38
             609.69,172.12 610.00,168.56 610.00,168.56
             610.00,168.56 610.19,164.62 610.19,164.62
             610.19,164.62 612.50,162.88 612.50,162.88
             612.50,162.88 616.75,160.88 616.75,160.88
             616.75,160.88 619.12,160.06 619.25,160.12
             619.38,160.19 623.06,159.50 623.12,159.50
             623.19,159.50 625.69,159.56 625.69,159.56
             625.69,159.56 626.88,158.25 626.88,158.25
             626.88,158.25 627.94,156.69 627.94,156.69
             627.94,156.69 628.94,154.19 628.94,154.19
             628.94,154.19 631.00,153.45 631.09,153.45
             631.18,153.45 633.55,153.82 633.55,153.91
             633.55,154.00 636.73,154.36 636.73,154.36
             636.73,154.36 638.64,153.18 638.64,153.18
             638.64,153.18 642.45,153.09 642.45,153.09
             642.45,153.09 644.38,154.38 644.38,154.38
             644.38,154.38 647.25,156.38 647.50,156.12
             647.75,155.88 649.50,154.88 649.50,154.88
             649.50,154.88 651.38,153.25 651.50,153.00
             651.62,152.75 654.62,149.88 654.62,149.62
             654.62,149.38 656.75,146.75 656.75,146.62
             656.75,146.50 656.50,145.12 656.38,145.00
             656.25,144.88 653.88,143.62 653.88,143.38
             653.88,143.12 651.25,144.00 651.12,144.00
             651.00,144.00 649.50,146.62 649.50,146.62
             649.50,146.62 646.25,148.12 646.25,148.12
             646.25,148.12 645.50,144.75 645.50,144.75
             645.50,144.75 646.25,142.00 646.25,141.88
             646.25,141.75 648.75,139.88 648.88,139.50
             649.00,139.12 650.50,137.75 650.50,137.62
             650.50,137.50 655.12,137.38 655.12,137.25
             655.12,137.12 657.88,136.00 657.88,135.88
             657.88,135.75 659.00,134.50 659.00,134.38
             659.00,134.25 658.00,132.25 657.75,132.00
             657.50,131.75 655.25,131.25 655.25,131.25
             655.25,131.25 655.25,128.50 655.38,128.50
             655.50,128.50 656.88,124.50 656.88,124.50
             656.88,124.50 661.62,120.12 661.62,120.12
             661.62,120.12 663.25,117.38 663.25,117.38
             663.25,117.38 662.12,112.62 662.12,112.62
             662.12,112.62 661.12,108.50 661.12,108.50
             661.12,108.50 658.38,104.50 658.38,104.50
             658.38,104.50 656.00,101.75 655.88,101.62
             655.75,101.50 652.50,100.12 652.38,99.88
             652.25,99.62 651.62,97.38 651.62,97.25
             651.62,97.12 651.62,93.75 651.62,93.75
             651.62,93.75 657.38,88.62 657.38,88.62
             657.38,88.62 661.62,84.88 661.75,84.88
             661.88,84.88 665.25,80.75 665.25,80.75
             665.25,80.75 671.62,77.88 671.62,77.88
             671.62,77.88 680.75,72.25 680.75,72.25
             680.75,72.25 683.50,68.75 683.50,68.75
             683.50,68.75 688.88,65.00 688.88,64.88
             688.88,64.75 693.50,60.50 693.50,60.50
             693.50,60.50 697.00,56.50 697.00,56.50
             697.00,56.50 698.00,52.25 698.00,52.12
             698.00,52.00 700.62,47.50 700.62,47.50
             700.62,47.50 704.12,40.25 704.12,40.25
             704.12,40.25 706.25,36.00 706.25,36.00
             706.25,36.00 706.88,31.00 706.88,30.88
             706.88,30.75 706.38,24.62 706.38,24.50
             706.38,24.38 706.12,20.25 706.00,20.12
             705.88,20.00 707.88,18.25 708.00,18.12
             708.12,18.00 710.38,17.75 710.38,17.75
             710.38,17.75 711.88,25.25 711.88,25.38
             711.88,25.50 711.50,31.75 711.50,31.75
             711.50,31.75 711.25,39.38 711.25,39.38
             711.25,39.38 708.25,44.00 708.25,44.12
             708.25,44.25 706.75,50.00 706.75,50.00
             706.75,50.00 704.38,54.75 704.38,54.75
             704.38,54.75 702.00,59.25 702.00,59.25
             702.00,59.25 702.12,69.75 702.00,70.00
             701.88,70.25 698.12,72.12 698.12,72.25
             698.12,72.38 693.75,73.88 693.62,73.75
             693.50,73.62 688.12,74.00 688.12,74.12
             688.12,74.25 684.62,78.50 684.50,78.62
             684.38,78.75 680.00,81.25 680.00,81.25
             680.00,81.25 676.50,80.62 676.50,81.00
             676.50,81.38 674.00,85.00 674.00,85.25
             674.00,85.50 675.50,89.12 675.50,89.12
             675.50,89.12 682.75,90.00 682.75,90.00
             682.75,90.00 686.88,95.00 686.88,95.12
             686.88,95.25 690.50,95.75 690.50,95.88
             690.50,96.00 700.62,107.12 700.62,107.25
             700.62,107.38 714.50,111.00 714.50,110.88
             714.50,110.75 723.25,120.25 723.25,120.25
             723.25,120.25 723.75,123.38 723.75,123.38
             723.75,123.38 724.25,134.88 724.25,134.88
             724.25,134.88 724.50,140.75 724.62,140.62
             724.75,140.50 725.50,146.38 725.50,146.38
             725.50,146.38 723.50,151.12 723.50,151.12
             723.50,151.12 722.88,159.38 722.88,159.38
             722.88,159.38 718.00,164.12 718.00,164.12
             718.00,164.12 716.25,168.62 716.25,168.62
             716.25,168.62 709.75,174.38 709.50,174.38
             709.25,174.38 706.25,180.38 706.25,180.38
             706.25,180.38 704.00,183.62 704.00,183.75
             704.00,183.88 705.38,187.62 705.38,187.62
             705.38,187.62 708.75,188.25 708.75,188.38
             708.75,188.50 717.62,198.00 717.62,197.88
             717.62,197.75 712.25,201.38 712.25,201.50
             712.25,201.62 719.38,208.25 719.62,207.88
             719.88,207.50 725.50,208.00 725.50,208.00
             725.50,208.00 730.75,213.50 730.75,213.50
             730.75,213.50 739.38,214.62 739.38,214.62
             739.38,214.62 743.88,220.00 743.88,220.00
             743.88,220.00 747.12,221.88 747.12,221.88
             747.12,221.88 750.38,224.38 750.38,224.38
             750.38,224.38 750.50,227.75 750.50,227.75
             750.50,227.75 745.62,232.50 745.62,232.50
             745.62,232.50 744.38,239.88 744.38,239.75
             744.38,239.62 732.25,242.38 732.25,242.25
             732.25,242.12 729.25,244.38 729.25,244.38
             729.25,244.38 725.88,248.62 725.88,248.75
             725.88,248.88 720.75,251.50 720.75,251.50
             720.75,251.50 712.88,254.38 712.88,254.50
             712.88,254.62 709.88,259.88 709.88,259.88
             709.88,259.88 707.25,260.75 707.25,260.75
             707.25,260.75 701.62,258.50 701.62,258.50
             701.62,258.50 699.12,260.38 699.12,260.38
             699.12,260.38 695.12,262.38 695.00,262.38
             694.88,262.38 690.50,264.00 690.50,264.00
             690.50,264.00 687.00,268.88 687.00,269.00
             687.00,269.12 685.12,275.12 684.88,275.25
             684.62,275.38 672.12,280.62 672.00,280.75
             671.88,280.88 670.50,288.12 670.50,288.12
             670.50,288.12 668.75,294.50 668.75,294.50
             668.75,294.50 666.88,297.88 666.88,297.88
             666.88,297.88 663.38,300.75 663.25,300.75
             663.12,300.75 656.75,305.12 656.75,305.25
             656.75,305.38 651.50,310.12 651.38,310.12
             651.25,310.12 646.50,315.25 646.50,315.25
             646.50,315.25 643.38,318.00 643.25,318.12
             643.12,318.25 638.62,317.12 638.62,317.12
             638.62,317.12 634.12,317.62 634.12,317.62
             634.12,317.62 628.25,319.38 628.25,319.38
             628.25,319.38 619.88,322.62 619.88,322.75
             619.88,322.88 614.88,326.62 614.88,326.62
             614.88,326.62 611.62,329.12 611.62,328.88
             611.62,328.62 608.75,325.25 608.75,325.12
             608.75,325.00 603.00,322.12 603.00,322.12
             603.00,322.12 597.88,320.50 597.75,320.38
             597.62,320.25 594.62,320.50 594.62,320.50
             594.62,320.50 590.00,323.50 589.88,323.50
             589.75,323.50 586.12,324.50 586.12,324.56
             586.12,324.62 584.25,321.31 584.19,321.31
             584.12,321.31 580.56,318.94 580.56,318.94
             580.56,318.94 579.62,315.81 579.62,315.81
             579.62,315.81 578.50,313.31 578.50,313.31
             578.50,313.31 578.38,310.81 578.38,310.81
             578.38,310.81 572.38,305.38 572.25,305.12
             572.12,304.88 570.19,300.88 570.19,300.88
             570.19,300.88 569.69,298.62 569.69,298.62
             569.69,298.62 568.94,295.62 568.94,295.56
             568.94,295.50 568.81,292.62 568.81,292.56
             568.81,292.50 567.62,289.19 567.62,289.12
             567.62,289.06 573.25,286.00 573.50,285.88
             573.75,285.75 576.00,284.44 576.00,284.44
             576.00,284.44 577.06,282.94 577.06,282.94
             577.06,282.94 576.75,279.88 576.75,279.88
             576.75,279.88 576.19,277.31 576.12,277.19
             576.06,277.06 574.69,276.50 574.50,276.50
             574.31,276.50 574.31,273.62 574.31,273.62
             574.31,273.62 575.06,271.62 575.06,271.69
             575.06,271.75 574.38,266.00 574.31,265.81
             574.25,265.62 570.88,264.00 570.81,264.00
             570.75,264.00 570.69,261.75 570.62,261.69
             570.56,261.62 570.44,260.00 570.44,260.00
             570.44,260.00 569.44,258.81 569.44,258.81
             569.44,258.81 564.81,258.38 564.81,258.38
             564.81,258.38 561.06,261.94 561.06,261.94
             561.06,261.94 555.19,261.88 555.19,261.94
             555.19,262.00 551.88,264.00 551.81,264.00
             551.75,264.00 550.31,267.00 550.25,267.06
             550.19,267.12 546.12,268.94 546.00,268.94
             545.88,268.94 543.25,270.81 543.25,270.81
             543.25,270.81 539.00,272.50 539.00,272.50
             539.00,272.50 531.50,279.62 531.50,279.62
             531.50,279.62 529.75,283.00 529.75,283.00
             529.75,283.00 530.12,287.38 530.12,287.38
             530.12,287.38 528.69,291.19 528.69,291.19
             528.69,291.19 524.00,293.81 524.00,293.81
             524.00,293.81 521.88,295.75 521.75,295.75
             521.62,295.75 519.00,296.62 518.88,296.38
             518.75,296.12 514.38,295.25 514.25,295.00
             514.12,294.75 509.50,293.25 509.38,293.00
             509.25,292.75 506.00,293.12 506.00,293.12
             506.00,293.12 501.75,294.88 501.75,294.88
             501.75,294.88 497.62,298.62 497.75,298.62
             497.88,298.62 493.38,303.88 493.38,304.00
             493.38,304.12 490.62,309.00 490.62,309.00
             490.62,309.00 491.00,314.50 491.00,314.50
             491.00,314.50 490.38,318.88 490.38,318.88
             490.38,318.88 484.75,322.25 484.75,322.25
             484.75,322.25 481.12,326.75 481.12,326.75
             481.12,326.75 480.12,329.38 480.00,329.38
             479.88,329.38 478.88,332.88 478.88,332.88
             478.88,332.88 476.88,335.00 476.62,335.00
             476.38,335.00 474.88,336.00 474.62,335.75
             474.38,335.50 472.75,335.38 472.75,335.12
             472.75,334.88 471.88,333.00 471.75,332.50
             471.62,332.00 470.75,331.25 470.62,331.25
             470.50,331.25 468.62,331.75 468.62,331.75
             468.62,331.75 467.00,333.00 466.88,333.00
             466.75,333.00 463.62,336.50 463.50,336.50
             463.38,336.50 461.38,337.88 461.25,337.88
             461.12,337.88 457.88,341.62 457.75,341.62
             457.62,341.62 454.62,344.75 454.62,344.75
             454.62,344.75 452.12,347.38 452.12,347.38
             452.12,347.38 448.25,349.25 448.25,349.25
             448.25,349.25 446.25,354.00 446.25,354.00
             446.25,354.00 444.38,357.62 444.25,357.62
             444.12,357.62 441.50,358.12 441.50,358.12
             441.50,358.12 439.12,360.88 439.12,361.00
             439.12,361.12 441.38,368.25 441.38,368.25
             441.38,368.25 437.62,370.00 437.62,370.00
             437.62,370.00 433.38,371.12 433.38,371.12
             433.38,371.12 428.88,370.62 428.88,370.62
             428.88,370.62 425.38,372.75 425.38,372.75
             425.38,372.75 423.25,374.62 423.25,374.62
             423.25,374.62 423.50,381.50 423.50,381.50
             423.50,381.50 420.62,385.12 420.75,385.12
             420.88,385.12 408.12,385.25 407.50,385.12
             406.88,385.00 404.62,384.88 404.62,384.88
             404.62,384.88 401.50,386.75 401.50,386.88
             401.50,387.00 392.88,386.38 392.88,386.50
             392.88,386.62 388.75,389.38 388.75,389.38
             388.75,389.38 385.38,390.38 385.25,390.38
             385.12,390.38 381.38,390.75 381.25,390.75
             381.12,390.75 375.38,390.38 375.12,390.38
             374.88,390.38 371.25,390.00 371.12,389.88
             371.00,389.75 367.75,389.50 367.75,389.50
             367.75,389.50 366.00,386.75 366.00,386.75
             366.00,386.75 366.00,383.12 365.75,383.00
             365.50,382.88 365.12,380.00 365.12,380.12
             365.12,380.25 364.00,377.62 363.75,377.62
             363.50,377.62 360.00,374.38 360.00,374.50
             360.00,374.62 356.62,373.75 356.25,373.75
             355.88,373.75 352.25,374.00 352.25,374.12
             352.25,374.25 347.75,374.75 347.75,374.75
             347.75,374.75 341.38,374.62 341.12,374.62
             340.88,374.62 335.88,375.38 335.50,375.38
             335.12,375.38 333.00,376.38 332.88,376.38
             332.75,376.38 330.12,379.38 330.12,379.38
             330.12,379.38 329.12,383.00 329.00,383.12
             328.88,383.25 327.88,386.50 327.88,386.62
             327.88,386.75 327.88,389.50 327.62,389.75
             327.38,390.00 326.75,392.88 326.62,393.12
             326.50,393.38 324.88,395.62 324.88,395.62
             324.88,395.62 323.50,398.50 323.25,398.88
             323.00,399.25 321.88,402.00 321.88,402.00
             321.88,402.00 322.12,406.50 321.88,406.75
             321.62,407.00 321.38,409.75 321.25,409.75
             321.12,409.75 320.50,413.00 320.50,413.00
             320.50,413.00 320.88,416.00 320.88,416.00
             320.88,416.00 324.38,417.25 324.50,417.00
             324.62,416.75 326.50,416.88 326.50,416.75
             326.50,416.62 329.25,417.62 329.25,417.62
             329.25,417.62 330.88,418.75 330.88,418.75
             330.88,418.75 331.62,420.75 331.62,420.75
             331.62,420.75 331.50,424.50 331.50,424.50
             331.50,424.50 329.00,427.50 329.00,427.50
             329.00,427.50 326.62,429.25 326.62,429.25
             326.62,429.25 323.62,432.12 323.62,432.12
             323.62,432.12 324.43,435.96 324.35,436.04
             324.26,436.13 322.83,437.78 322.83,437.83
             322.83,437.87 321.39,439.74 321.39,439.78
             321.39,439.83 319.26,441.43 319.22,441.43
             319.17,441.43 317.30,441.83 317.30,441.83
             317.30,441.83 314.61,442.04 314.43,441.96
             314.26,441.87 309.96,442.91 309.78,442.87
             309.61,442.83 307.17,443.48 306.91,443.52
             306.65,443.57 304.96,444.26 304.87,444.35
             304.78,444.43 303.04,445.91 303.04,445.96
             303.04,446.00 302.17,447.52 302.22,447.57
             302.26,447.61 302.83,451.22 302.83,451.26
             302.83,451.30 304.04,452.57 304.04,452.74
             304.04,452.91 305.91,454.13 305.87,454.26
             305.83,454.39 307.04,455.61 307.04,455.70
             307.04,455.78 307.22,457.65 307.22,457.70
             307.22,457.74 308.22,459.74 308.22,459.74
             308.22,459.74 311.39,461.65 311.39,461.65
             311.39,461.65 313.87,462.22 313.83,462.22
             313.78,462.22 316.22,463.30 316.22,463.35
             316.22,463.39 317.57,464.26 317.57,464.30
             317.57,464.35 319.87,466.52 319.91,466.52
             319.96,466.52 322.65,468.30 322.65,468.35
             322.65,468.39 324.78,469.39 324.78,469.43
             324.78,469.48 326.48,470.22 326.48,470.26
             326.48,470.30 329.04,470.91 329.04,471.00
             329.04,471.09 330.04,472.87 330.04,472.96
             330.04,473.04 329.48,475.52 329.48,475.52
             329.48,475.52 328.04,477.22 327.96,477.22
             327.87,477.22 326.48,477.74 326.48,477.74
             326.48,477.74 324.43,478.00 324.43,478.00
             324.43,478.00 322.69,475.81 322.62,475.94
             322.56,476.06 321.06,476.94 321.00,477.31
             320.94,477.69 319.00,478.62 318.94,478.81
             318.88,479.00 317.06,480.62 317.00,480.69
             316.94,480.75 315.88,483.19 315.88,483.25
             315.88,483.31 314.56,485.62 314.50,485.69
             314.44,485.75 313.06,487.69 313.00,487.75
             312.94,487.81 311.06,489.50 311.06,489.56
             311.06,489.62 309.44,491.94 309.44,492.00
             309.44,492.06 307.75,494.69 307.75,494.69
             307.75,494.69 306.06,497.94 306.06,497.94
             306.06,497.94 304.62,500.06 304.62,500.12
             304.62,500.19 303.25,503.88 303.25,504.00
             303.25,504.12 303.44,507.25 303.44,507.31
             303.44,507.38 304.69,509.62 304.69,509.69
             304.69,509.75 303.94,511.44 303.94,511.50
             303.94,511.56 301.88,513.62 301.88,513.62
             301.88,513.62 301.31,516.50 301.31,516.50
             301.31,516.50 302.69,519.06 302.69,519.06
             302.69,519.06 304.38,521.62 304.31,521.88
             304.25,522.12 307.06,524.31 307.12,524.38
             307.19,524.44 306.94,526.94 306.88,527.12
             306.81,527.31 306.75,529.75 306.75,529.75
             306.75,529.75 305.94,530.81 305.94,530.81
             305.94,530.81 304.44,531.56 304.38,531.81
             304.31,532.06 303.50,533.81 303.50,533.88
             303.50,533.94 302.75,536.50 302.69,536.62
             302.62,536.75 301.38,539.19 301.31,539.00
             301.25,538.81 297.88,539.19 297.69,539.06
             297.50,538.94 295.88,538.88 295.88,538.81
             295.88,538.75 292.12,536.50 291.88,536.38
             291.62,536.25 288.25,534.31 288.06,534.31
             287.88,534.31 285.25,534.88 285.06,534.81
             284.88,534.75 281.75,537.50 281.69,537.56
             281.62,537.62 279.75,540.44 279.62,540.44
             279.50,540.44 278.00,542.56 278.00,542.56
             278.00,542.56 276.69,545.94 276.69,545.94
             276.69,545.94 276.88,548.88 276.88,548.88
             276.88,548.88 275.44,549.44 275.44,549.44
             275.44,549.44 273.75,550.50 273.75,550.50
             273.75,550.50 271.62,551.38 271.62,551.38
             271.62,551.38 269.12,551.38 269.12,551.38
             269.12,551.38 265.91,551.31 265.91,551.31
             265.91,551.31 264.64,550.58 264.64,550.58
             264.64,550.58 263.20,549.76 263.20,549.76
             263.20,549.76 261.96,549.02 261.96,549.02
             261.96,549.02 261.16,548.11 261.16,548.11
             261.16,548.11 259.93,547.16 259.93,547.16
             259.93,547.16 257.75,544.81 257.75,544.81
             257.75,544.81 256.25,543.69 256.25,543.69
             256.25,543.69 256.31,541.69 256.31,541.69
             256.31,541.69 256.94,540.50 256.94,540.44
             256.94,540.38 257.56,539.31 257.56,539.25
             257.56,539.19 258.06,537.69 258.06,537.69
             258.06,537.69 258.69,535.56 258.69,535.56
             258.69,535.56 257.78,533.13 257.78,533.09
             257.78,533.04 257.57,531.48 257.57,531.48
             257.57,531.48 257.00,529.87 257.00,529.87
             257.00,529.87 257.39,529.04 257.39,529.04
             257.39,529.04 256.52,527.39 256.52,527.39
             256.52,527.39 255.70,526.09 255.70,526.09
             255.70,526.09 255.39,524.35 255.39,524.35
             255.39,524.35 255.39,522.87 255.39,522.87
             255.39,522.87 256.26,520.83 256.26,520.83
             256.26,520.83 256.84,519.19 256.84,519.19
             256.84,519.19 256.88,518.41 256.84,518.38
             256.81,518.34 256.84,517.47 256.84,517.44
             256.84,517.41 256.88,516.62 256.88,516.62
             256.88,516.62 255.00,515.47 255.00,515.47
             255.00,515.47 253.22,514.52 253.22,514.52
             253.22,514.52 251.17,513.61 251.17,513.61
             251.17,513.61 249.96,512.74 249.96,512.74
             249.96,512.74 248.39,511.87 248.39,511.87
             248.39,511.87 247.61,510.87 247.61,510.87
             247.61,510.87 246.61,510.13 246.61,510.13
             246.61,510.13 246.43,509.43 246.43,509.43
             246.43,509.43 245.39,507.87 245.39,507.87
             245.39,507.87 245.61,506.39 245.61,506.39
             245.61,506.39 245.87,505.00 245.87,505.00
             245.87,505.00 245.78,503.52 245.78,503.39
             245.78,503.26 245.83,501.83 245.83,501.83
             245.83,501.83 245.39,500.78 245.39,500.78
             245.39,500.78 244.17,500.26 244.04,500.26
             243.91,500.26 242.70,500.70 242.70,500.70
             242.70,500.70 241.35,501.57 241.35,501.61
             241.35,501.65 240.35,502.65 240.35,502.65
             240.35,502.65 239.09,503.57 239.09,503.57
             239.09,503.57 237.65,505.52 237.65,505.52
             237.65,505.52 236.83,506.57 236.83,506.57
             236.83,506.57 235.78,507.48 235.78,507.48
             235.78,507.48 234.43,508.35 234.43,508.35
             234.43,508.35 232.35,510.00 232.35,510.00
             232.35,510.00 231.00,510.83 231.00,510.83
             231.00,510.83 229.70,510.96 229.70,510.96
             229.70,510.96 227.57,510.87 227.52,510.87
             227.48,510.87 226.00,510.78 225.96,510.78
             225.91,510.78 223.83,511.39 223.83,511.43
             223.83,511.48 222.00,511.88 222.00,511.88
             222.00,511.88 220.00,512.00 220.00,512.00
             220.00,512.00 217.62,512.12 217.62,512.12
             217.62,512.12 213.88,512.12 213.88,512.12
             213.88,512.12 211.12,510.62 211.12,510.62
             211.12,510.62 209.00,509.12 209.00,509.12
	     209.00,509.12 209.55,506.27 209.55,506.27" />
</svg>
