<?xml version="1.0" encoding="UTF-8" standalone="no"?>
<!DOCTYPE svg PUBLIC "-//W3C//DTD SVG 20010904//EN"
              "http://www.w3.org/TR/2001/REC-SVG-20010904/DTD/svg10.dtd">

<svg xmlns="http://www.w3.org/2000/svg"
     width="5.32497in" height="5.12478in"
     viewBox="0 0 798 768">
  <path id="Unnamed"
        fill="none" stroke="black" stroke-width="1"
        d="M 326.62,435.88
           C 326.62,435.88 327.55,437.09 327.55,437.09
             327.55,437.09 329.55,439.09 329.55,439.09
             329.55,439.09 331.91,441.18 331.91,441.18
             331.91,441.18 333.00,443.91 333.00,443.91
             333.00,443.91 334.82,445.82 334.82,445.91
             334.82,446.00 337.36,447.18 337.36,447.18
             337.36,447.18 339.73,448.27 339.73,448.36
             339.73,448.45 341.73,450.64 341.73,450.64
             341.73,450.64 344.73,452.91 344.73,452.91
             344.73,452.91 348.82,455.00 348.82,455.00
             348.82,455.00 352.27,455.36 352.27,455.36
             352.27,455.36 358.36,455.27 358.36,455.27
             358.36,455.27 361.82,455.00 361.82,455.00
             361.82,455.00 365.27,456.00 365.27,456.00
             365.27,456.00 369.09,456.27 369.09,456.27
             369.09,456.27 373.27,455.27 373.27,455.27
             373.27,455.27 376.09,455.18 376.09,455.18
             376.09,455.18 379.45,453.36 379.45,453.36
             379.45,453.36 383.73,453.55 383.73,453.64
             383.73,453.73 388.27,455.36 388.27,455.36
             388.27,455.36 393.55,458.82 393.55,458.91
             393.55,459.00 397.64,460.09 397.64,460.09
             397.64,460.09 404.18,461.45 404.18,461.45
             404.18,461.45 407.09,462.55 407.09,462.55
             407.09,462.55 410.48,464.52 410.43,464.52
             410.39,464.52 411.65,464.91 411.65,464.91
             411.65,464.91 413.39,465.13 413.39,465.13
             413.39,465.13 415.96,465.04 416.00,465.00
             416.04,464.96 418.00,463.52 418.00,463.52
             418.00,463.52 420.52,461.65 420.52,461.65
             420.52,461.65 423.30,462.00 423.30,462.00
             423.30,462.00 426.65,464.30 426.65,464.30
             426.65,464.30 428.57,465.91 428.57,465.91
             428.57,465.91 430.61,466.04 430.61,466.04
             430.61,466.04 433.43,466.52 433.43,466.52
             433.43,466.52 434.65,464.91 434.65,464.91
             434.65,464.91 438.35,464.96 438.35,464.96
             438.35,464.96 445.04,468.35 445.04,468.39
             445.04,468.43 448.09,470.17 448.09,470.17
             448.09,470.17 449.78,471.43 449.78,471.48
             449.78,471.52 450.78,473.74 450.78,473.78
             450.78,473.83 451.70,477.35 451.70,477.35
             451.70,477.35 452.48,479.83 452.48,479.83
             452.48,479.83 453.43,481.48 453.43,481.52
             453.43,481.57 453.35,484.13 453.35,484.13
             453.35,484.13 450.87,486.78 450.87,486.78
             450.87,486.78 448.83,488.74 448.83,488.78
             448.83,488.83 448.13,495.30 448.13,495.35
             448.13,495.39 440.04,504.43 440.04,504.43
             440.04,504.43 438.38,506.12 438.38,506.12
             438.38,506.12 437.75,507.62 437.75,507.62
             437.75,507.62 437.75,509.12 437.75,509.12
             437.75,509.12 440.62,509.62 440.62,509.62
             440.62,509.62 444.88,511.25 445.00,511.25
             445.12,511.25 447.75,511.75 447.75,511.75
             447.75,511.75 452.38,512.00 452.38,512.00
             452.38,512.00 456.55,511.91 456.55,511.91
             456.55,511.91 460.09,512.45 460.09,512.45
             460.09,512.45 461.55,513.64 461.55,513.64
             461.55,513.64 463.91,517.00 463.91,517.00
             463.91,517.00 466.09,519.73 466.09,519.73
             466.09,519.73 468.27,521.55 468.27,521.55
             468.27,521.55 472.18,520.64 472.18,520.64
             472.18,520.64 474.18,519.91 474.18,519.91
             474.18,519.91 473.09,518.36 473.09,518.36
             473.09,518.36 471.27,515.82 471.27,515.82
             471.27,515.82 469.55,513.18 469.55,513.18
             469.55,513.18 469.91,509.36 469.91,509.36
             469.91,509.36 469.73,506.09 469.73,506.09
             469.73,506.09 470.00,502.73 470.00,502.73
             470.00,502.73 470.82,499.36 470.82,499.36
             470.82,499.36 472.09,495.55 472.09,495.55
             472.09,495.55 473.00,493.64 473.00,493.36
             473.00,493.09 474.64,491.27 474.64,491.18
             474.64,491.09 477.64,488.18 477.73,488.09
             477.82,488.00 480.36,486.09 480.36,486.09
             480.36,486.09 482.91,484.27 482.91,484.27
             482.91,484.27 484.27,482.55 484.27,482.45
             484.27,482.36 484.82,480.09 484.73,480.09
             484.64,480.09 485.27,477.64 485.27,477.64
             485.27,477.64 485.36,473.73 485.36,473.73
             485.36,473.73 485.55,469.64 485.55,469.36
             485.55,469.09 485.18,466.64 485.18,466.64
             485.18,466.64 481.91,465.45 481.82,465.45
             481.73,465.45 479.45,464.73 479.45,464.73
             479.45,464.73 477.64,463.73 477.55,463.64
             477.45,463.55 477.45,462.55 477.45,462.55
             477.45,462.55 476.64,460.82 476.55,460.82
             476.45,460.82 475.55,461.82 475.55,461.91
             475.55,462.00 473.09,463.09 473.00,463.27
             472.91,463.45 470.00,464.00 470.00,464.00
             470.00,464.00 465.36,463.00 465.36,463.00
             465.36,463.00 460.36,461.64 460.18,461.45
             460.00,461.27 454.36,458.36 454.27,458.36
             454.18,458.36 452.55,456.64 452.55,456.64
             452.55,456.64 452.55,452.64 452.55,452.09
             452.55,451.55 451.18,449.91 451.09,449.91
             451.00,449.91 449.73,446.91 449.73,446.73
             449.73,446.55 449.73,444.55 449.82,444.45
             449.91,444.36 452.09,443.27 452.09,443.27
             452.09,443.27 453.45,441.64 453.45,441.64
             453.45,441.64 453.45,439.64 453.45,439.64
             453.45,439.64 450.64,437.91 450.64,437.91
             450.64,437.91 449.91,435.18 449.91,435.09
             449.91,435.00 448.82,432.73 448.82,432.73
             448.82,432.73 446.36,431.09 446.36,431.09
             446.36,431.09 443.45,428.55 443.45,428.55
             443.45,428.55 440.09,426.73 440.09,426.73
             440.09,426.73 438.64,424.45 438.09,424.18
             437.55,423.91 437.82,421.18 437.73,420.82
             437.64,420.45 438.18,418.27 438.18,418.27
             438.18,418.27 439.91,417.27 439.91,417.27
             439.91,417.27 442.09,417.82 442.18,417.82
             442.27,417.82 443.18,418.64 443.18,418.64
             443.18,418.64 445.64,419.36 445.64,419.36
             445.64,419.36 448.91,419.45 448.91,419.45
             448.91,419.45 450.18,418.91 450.18,418.91
             450.18,418.91 452.09,418.82 452.09,418.82
             452.09,418.82 454.00,419.36 454.00,419.36
             454.00,419.36 456.45,419.64 456.45,419.64
             456.45,419.64 458.45,419.82 458.45,419.82
             458.45,419.82 460.36,416.64 460.36,416.55
             460.36,416.45 461.55,413.36 461.55,413.36
             461.55,413.36 463.73,412.27 463.73,412.27
             463.73,412.27 465.82,411.55 465.82,411.55
             465.82,411.55 466.45,409.18 466.45,409.18
             466.45,409.18 467.36,406.45 467.36,406.36
             467.36,406.27 470.00,403.09 470.00,403.00
             470.00,402.91 473.36,400.91 473.36,400.91
             473.36,400.91 476.09,399.55 476.09,399.55
             476.09,399.55 480.45,397.82 480.36,397.91
             480.27,398.00 483.36,395.73 483.36,395.73
             483.36,395.73 486.18,394.73 486.18,394.73
             486.18,394.73 489.00,394.91 489.00,394.91
             489.00,394.91 491.27,393.55 491.27,393.36
             491.27,393.18 493.00,390.91 493.09,390.55
             493.18,390.18 494.36,388.09 494.45,388.00
             494.55,387.91 496.18,385.00 496.18,384.82
             496.18,384.64 498.09,382.09 498.18,382.09
             498.27,382.09 500.00,381.64 500.00,381.55
             500.00,381.45 502.36,381.55 502.55,381.55
             502.73,381.55 504.91,381.73 504.91,381.73
             504.91,381.73 507.36,381.55 507.45,381.45
             507.55,381.36 510.27,379.64 510.27,379.64
             510.27,379.64 511.18,378.36 511.18,378.36
             511.18,378.36 513.09,377.55 513.09,377.55
             513.09,377.55 514.91,377.27 514.91,377.27
             514.91,377.27 516.91,376.09 516.91,376.09
             516.91,376.09 517.55,374.55 517.55,374.55
             517.55,374.55 519.45,373.00 519.45,373.00
             519.45,373.00 520.82,371.64 520.82,371.64
             520.82,371.64 520.91,369.27 520.91,369.27
             520.91,369.27 521.64,366.55 521.64,366.55
             521.64,366.55 524.55,368.73 524.55,368.73
             524.55,368.73 528.36,369.09 528.36,369.09
             528.36,369.09 531.82,370.00 531.82,370.00
             531.82,370.00 534.73,372.91 534.73,372.91
             534.73,372.91 537.45,375.09 537.45,375.09
             537.45,375.09 541.27,373.27 541.27,373.27
             541.27,373.27 542.73,368.55 542.73,368.55
             542.73,368.55 546.73,367.82 546.73,367.82
             546.73,367.82 551.45,364.55 551.45,364.55
             551.45,364.55 555.82,363.27 555.82,363.27
             555.82,363.27 560.00,361.09 560.00,361.09
             560.00,361.09 564.73,357.64 564.73,357.64
             564.73,357.64 568.64,356.73 568.64,356.73
             568.64,356.73 569.00,355.45 569.00,355.45
             569.00,355.45 572.09,353.64 572.09,353.64
             572.09,353.64 573.55,350.45 573.55,350.36
             573.55,350.27 574.27,346.00 574.36,345.82
             574.45,345.64 575.64,341.73 575.64,341.64
             575.64,341.55 576.91,338.45 576.91,338.45
             576.91,338.45 577.36,335.45 577.36,335.45
             577.36,335.45 579.64,332.00 579.73,331.91
             579.82,331.82 581.45,328.45 581.45,328.45
             581.45,328.45 583.36,326.18 583.36,326.18
             583.36,326.18 586.12,324.50 586.12,324.56
             586.12,324.62 584.25,321.31 584.19,321.31
             584.12,321.31 580.56,318.94 580.56,318.94
             580.56,318.94 579.62,315.81 579.62,315.81
             579.62,315.81 578.50,313.31 578.50,313.31
             578.50,313.31 578.38,310.81 578.38,310.81
             578.38,310.81 572.38,305.38 572.25,305.12
             572.12,304.88 570.19,300.88 570.19,300.88
             570.19,300.88 569.69,298.62 569.69,298.62
             569.69,298.62 568.94,295.62 568.94,295.56
             568.94,295.50 568.81,292.62 568.81,292.56
             568.81,292.50 567.62,289.19 567.62,289.12
             567.62,289.06 573.25,286.00 573.50,285.88
             573.75,285.75 576.00,284.44 576.00,284.44
             576.00,284.44 577.06,282.94 577.06,282.94
             577.06,282.94 576.75,279.88 576.75,279.88
             576.75,279.88 576.19,277.31 576.12,277.19
             576.06,277.06 574.69,276.50 574.50,276.50
             574.31,276.50 574.31,273.62 574.31,273.62
             574.31,273.62 575.06,271.62 575.06,271.69
             575.06,271.75 574.38,266.00 574.31,265.81
             574.25,265.62 570.88,264.00 570.81,264.00
             570.75,264.00 570.69,261.75 570.62,261.69
             570.56,261.62 570.44,260.00 570.44,260.00
             570.44,260.00 569.44,258.81 569.44,258.81
             569.44,258.81 564.81,258.38 564.81,258.38
             564.81,258.38 561.06,261.94 561.06,261.94
             561.06,261.94 555.19,261.88 555.19,261.94
             555.19,262.00 551.88,264.00 551.81,264.00
             551.75,264.00 550.31,267.00 550.25,267.06
             550.19,267.12 546.12,268.94 546.00,268.94
             545.88,268.94 543.25,270.81 543.25,270.81
             543.25,270.81 539.00,272.50 539.00,272.50
             539.00,272.50 531.50,279.62 531.50,279.62
             531.50,279.62 529.75,283.00 529.75,283.00
             529.75,283.00 530.12,287.38 530.12,287.38
             530.12,287.38 528.69,291.19 528.69,291.19
             528.69,291.19 524.00,293.81 524.00,293.81
             524.00,293.81 521.88,295.75 521.75,295.75
             521.62,295.75 519.00,296.62 518.88,296.38
             518.75,296.12 514.38,295.25 514.25,295.00
             514.12,294.75 509.50,293.25 509.38,293.00
             509.25,292.75 506.00,293.12 506.00,293.12
             506.00,293.12 501.75,294.88 501.75,294.88
             501.75,294.88 497.62,298.62 497.75,298.62
             497.88,298.62 493.38,303.88 493.38,304.00
             493.38,304.12 490.62,309.00 490.62,309.00
             490.62,309.00 491.00,314.50 491.00,314.50
             491.00,314.50 490.38,318.88 490.38,318.88
             490.38,318.88 484.75,322.25 484.75,322.25
             484.75,322.25 481.12,326.75 481.12,326.75
             481.12,326.75 480.12,329.38 480.00,329.38
             479.88,329.38 478.88,332.88 478.88,332.88
             478.88,332.88 476.88,335.00 476.62,335.00
             476.38,335.00 474.88,336.00 474.62,335.75
             474.38,335.50 472.75,335.38 472.75,335.12
             472.75,334.88 471.88,333.00 471.75,332.50
             471.62,332.00 470.75,331.25 470.62,331.25
             470.50,331.25 468.62,331.75 468.62,331.75
             468.62,331.75 467.00,333.00 466.88,333.00
             466.75,333.00 463.62,336.50 463.50,336.50
             463.38,336.50 461.38,337.88 461.25,337.88
             461.12,337.88 457.88,341.62 457.75,341.62
             457.62,341.62 454.62,344.75 454.62,344.75
             454.62,344.75 452.12,347.38 452.12,347.38
             452.12,347.38 448.25,349.25 448.25,349.25
             448.25,349.25 446.25,354.00 446.25,354.00
             446.25,354.00 444.38,357.62 444.25,357.62
             444.12,357.62 441.50,358.12 441.50,358.12
             441.50,358.12 439.12,360.88 439.12,361.00
             439.12,361.12 441.38,368.25 441.38,368.25
             441.38,368.25 437.62,370.00 437.62,370.00
             437.62,370.00 433.38,371.12 433.38,371.12
             433.38,371.12 428.88,370.62 428.88,370.62
             428.88,370.62 425.38,372.75 425.38,372.75
             425.38,372.75 423.25,374.62 423.25,374.62
             423.25,374.62 423.50,381.50 423.50,381.50
             423.50,381.50 420.62,385.12 420.75,385.12
             420.88,385.12 408.12,385.25 407.50,385.12
             406.88,385.00 404.62,384.88 404.62,384.88
             404.62,384.88 401.50,386.75 401.50,386.88
             401.50,387.00 392.88,386.38 392.88,386.50
             392.88,386.62 388.75,389.38 388.75,389.38
             388.75,389.38 385.38,390.38 385.25,390.38
             385.12,390.38 381.38,390.75 381.25,390.75
             381.12,390.75 375.38,390.38 375.12,390.38
             374.88,390.38 371.25,390.00 371.12,389.88
             371.00,389.75 367.75,389.50 367.75,389.50
             367.75,389.50 366.00,386.75 366.00,386.75
             366.00,386.75 366.00,383.12 365.75,383.00
             365.50,382.88 365.12,380.00 365.12,380.12
             365.12,380.25 364.00,377.62 363.75,377.62
             363.50,377.62 360.00,374.38 360.00,374.50
             360.00,374.62 356.62,373.75 356.25,373.75
             355.88,373.75 352.25,374.00 352.25,374.12
             352.25,374.25 347.75,374.75 347.75,374.75
             347.75,374.75 341.38,374.62 341.12,374.62
             340.88,374.62 335.88,375.38 335.50,375.38
             335.12,375.38 333.00,376.38 332.88,376.38
             332.75,376.38 330.12,379.38 330.12,379.38
             330.12,379.38 329.12,383.00 329.00,383.12
             328.88,383.25 327.88,386.50 327.88,386.62
             327.88,386.75 327.88,389.50 327.62,389.75
             327.38,390.00 326.75,392.88 326.62,393.12
             326.50,393.38 324.88,395.62 324.88,395.62
             324.88,395.62 323.50,398.50 323.25,398.88
             323.00,399.25 321.88,402.00 321.88,402.00
             321.88,402.00 322.12,406.50 321.88,406.75
             321.62,407.00 321.38,409.75 321.25,409.75
             321.12,409.75 320.50,413.00 320.50,413.00
             320.50,413.00 320.88,416.00 320.88,416.00
             320.88,416.00 324.38,417.25 324.50,417.00
             324.62,416.75 326.50,416.88 326.50,416.75
             326.50,416.62 329.25,417.62 329.25,417.62
             329.25,417.62 330.88,418.75 330.88,418.75
             330.88,418.75 331.62,420.75 331.62,420.75
             331.62,420.75 331.50,424.50 331.50,424.50
             331.50,424.50 329.00,427.50 329.00,427.50
             329.00,427.50 326.62,429.25 326.62,429.25
             326.62,429.25 323.62,432.12 323.62,432.12
             323.62,432.12 324.43,435.96 324.35,436.04
	     324.43,435.96 326.62,435.88 326.62,435.88" />
</svg>
